<svg xmlns="http://www.w3.org/2000/svg" viewBox="0 0 414 254.29"><defs><style>.cls-1{opacity:0.1;}.cls-2{fill-rule:evenodd;}</style></defs><title>bg-city</title><g id="Layer_2" data-name="Layer 2"><g id="_1" data-name="1"><g class="cls-1"><rect y="248.23" width="414" height="6.06"/><path class="cls-2" d="M51.88,219.9v31.95l1.79,2.44H34.34l1.47-2.44h0V232.52l-1-2.66h1a7.62,7.62,0,0,0-15.19,0h1l-1,2.66v19.33h.05l1.74,2.44H3.26l1.42-2.44V216.32L.5,213.06H.37v-.32H4.68v-5.28h47.2v5.28h4.36v.32H56l-4.13,3.26v3.58Z"/><path class="cls-2" d="M53.21,226.79v5.87h.32v21.63h55.24V232.66h.6V226.1h-.79v-49h1.11v-1.38h-2.21v-2.06h-.78V173h-.23l-.87-1.57-.92-1.65-.87,1.65-.87,1.57h-.23v.64h-13v2.06H87.42v1.38h1.24v22.36H83.24l-.87-6.56-.19-1.75v-9.36h1.47V180.6H82.18v-1.24H80.94v1.24H79.48v1.15h1.46v9.13l-.27,2-.87,6.56H73.69V177.06h1.1v-1.38h-2.2v-2.06H59.82V173h-.23l-.87-1.57-.87-1.65-.92,1.65L56.11,173h-.28v.64H54.77v2.06H52.52v1.38h1.24v49h-.55Zm20.48-25.3h6.15v3.86l-.36.59-2.12,3.31H73.69v-7.76Zm9.55,0h5.42v7.76H85.72l-2.07-3.31-.41-.59Zm-8.59,16.89a6.5,6.5,0,0,1,6-6.15,6.53,6.53,0,0,0-6,6.15Zm7-6.15a6.35,6.35,0,0,1,3.63,1.47,6.35,6.35,0,0,0-3.63-1.47Zm23.6-2.52H92v-10.1h13.32v10.1Zm-4.78-8.5c.46,0,.88.28.88.6v6.84H99.63v-6.84c0-.32.37-.6.87-.6Zm-3.44,0c.46,0,.87.28.87.6v6.84H96.19v-6.84c0-.32.37-.6.87-.6Zm5.42,11.85h1.79v-1.79h-1.79Zm-9.41,0H94.9v-1.79H93.07ZM65.61,201.21c.46,0,.87.28.87.6v6.84H64.74v-6.84c0-.32.37-.6.87-.6Zm-3.44,0c.46,0,.82.28.82.6v6.84h-1.7v-6.84c0-.32.37-.6.88-.6Zm5.41,11.85h1.8v-1.79h-1.8Zm-9.41,0H60v-1.79H58.17ZM105.42,253h-1.24V240.84c0-3.72-5.47-6.75-5.47-6.75s-5.46,3-5.46,6.75V253H91.46v-20.3h14V253Zm-17.31,0H86.68V240.84c0-3.72-5.46-6.75-5.46-6.75s-5.46,3-5.46,6.75V253H74.2v-20.3H88.11V253ZM70.8,253H69.24V240.84c0-3.72-5.47-6.75-5.47-6.75s-5.46,3-5.46,6.75V253H56.93v-20.3H70.8V253Z"/><path class="cls-2" d="M283.51,251h.92l-6.93-13.41a20.2,20.2,0,0,0-26.95-.87L243.16,251h1.33v3.26H227V251h2.3l14.37-27.78v-4.18h3.07l5.1-14.6v-.32H252L253.4,200h-.56v-3.86h1.61v-.73h-2.39v-4.18h3.63c2.71-21.21,4-57.67,4.41-69.33H260V121h.13l.05-2.25h-.64V115h1.65v-4.64h1.93v-6.57h.64v-6h.74v6h.68v6.57h1.89V115h1.7v3.76h-.69l.09,2.25h.09v.92h0c.23,6.57.68,21.07,1.6,36.32l.05.13-.05,0c.55,9.23,1.24,18.64,2.07,26.72.23,2.21.5,4.18.69,6.11h3.67v4.18h-2.39v.73h1.56V200h-.36l1.42,4.13,5.19,14.92h1.6V223l.33-.14L298.21,251H301v3.26H283.51Zm-35.44-32.92h0l4.64-2.71L250,212.78Zm2.62-7.49h0l4.13-2.7-2.34-2.35Zm2.43-6.88h0l3-1.93-1.84-1.56ZM274.06,200h-.14l-1.75,1.65,3.08,1.79Zm2,5.6h0l-2.16,2.2,3.72,2.34Zm2.43,7h0l-2.94,2.8,4.92,2.85Zm-14.83-93.85h0l-1.1.92-1.1-.92ZM262.21,120h0l-1.29,1,.1-2.06Zm-.69,1h0l.92-.78.83.78Zm1.29-1h0l.92-.74v1.56Zm.92,2.06h0l-1.38,1.43-1.43-1.52h2.81ZM262,123.8h0L260.83,125l.05-2.48Zm-1.15,1.84h0l1.47-1.52,1.33,1.52Zm1.79-1.88h0l1.11-1.15V125Zm1.11,2.8h0L262.26,128l-1.34-1.52h2.81Zm-1.89,1.79h0l-1.19,1.28.09-2.61Zm-1.24,1.93h0l1.61-1.56,1.33,1.6H260.6Zm1.93-1.93h0l1.2-1.2v2.58Zm1.2,2.94h0l-1.52,1.47-1.42-1.57h2.94Zm-1.93,1.83h0l-1.33,1.29v-.28l.09-2.39Zm-1.24,1.79h0l1.56-1.47,1.33,1.47Zm1.88-1.79h0l1.29-1.19v2.57Zm1.29,3h0l-1.52,1.33-1.65-1.65h3.07l.1,0Zm-1.93,1.65h0l-1.52,1.29.14-2.71Zm-1.47,1.84h0l1.79-1.52,1.47,1.52Zm2.11-1.84h0l1.29-1.06V139ZM264.6,136h0l.14-.18h3.07l-1.56,1.65L264.6,136Zm-4.18-.18h0v0Zm3.31,4.73h0L262,142l-1.51-1.51h3.26Zm-2.12,1.79h0l-1.51,1.28.09-2.71Zm-1.6,1.88h0l1.92-1.56,1.57,1.65H260Zm2.29-1.88h0l1.33-1.2v2.62Zm1.29,2.89h0l-1.75,1.51-1.56-1.6h3.31ZM261.48,147h0l-1.61,1.43.09-2.94ZM260,148.87h0l1.79-1.51,1.51,1.51Zm2.2-1.84h0l1.38-1.23v1.46l0,.74v.46Zm-2.11-1.92h0l-.14.41.05-.41Zm3.3,4.63h0l-1.65,1.47-1.47-1.47Zm-2.06,1.84h0l-1.75,1.56.14-3.12Zm-1.42,2h0l1.79-1.65,1.69,1.65Zm2.2-2h0l1.42-1.24,0,.79v1.19l-.05.55Zm1,2.9h0l-1.61,1.33-1.33-1.33Zm-2.07,1.79h0l-1.74,1.42.23-3Zm-1.47,2h0l1.89-1.61,1.51,1.61Zm2.39-2h0l1.42-1.29v.6l-.09,2.06Zm1.29,2.85h0l-1.75,1.46-1.38-1.46Zm-2.21,1.83h0l-2,1.75.23-3.58Zm-1.33,1.93h0l1.75-1.47,1.47,1.47ZM262,160.9h0l1.29-1.06V160l0,.23v1.19l0,.73Zm.87,2.8h0L261.2,165l-1.28-1.33Zm-2.11,1.79h0l-2,1.7.28-3.49Zm-1.42,2h0l1.83-1.57,1.57,1.57Zm2.34-2h0l1.47-1.28-.05.5v.37l-.09,1.74Zm.87,2.85h0l-1.74,1.42-1.38-1.42Zm-2.25,1.79h0l-1.88,1.51.27-3.26Zm-1.51,2h0l2-1.51,1.38,1.51Zm2.38-1.93h0l1.75-1.33c0,1-.09,2-.18,3Zm1.24,2.85h0l-1.74,1.33L259.32,173Zm-2.2,1.75h0l-2.16,1.7c.09-1.11.19-2.3.28-3.45h.18Zm-1.52,2h0l1.89-1.56,1.47,1.56Zm2.39-1.93h0l1.56-1.24c0,.92-.09,1.84-.18,2.71Zm.6,2.8h0l-1.52,1.24L259,177.61Zm-2,1.65h0l-2,1.57c.14-1,.23-2.12.27-3.22h.23Zm-1.75,2.16h0l2.12-1.74,1.7,1.74Zm2.62-2.11h0l1.84-1.47c-.09,1-.14,2.11-.28,3.08Zm1.24,3h0l-2,1.56-1.42-1.56Zm-2.48,1.92h0l-2,1.66h-.14c.09-1.15.18-2.34.32-3.54Zm-1,1.66h0l1.46-1.2,1.11,1.2Zm2-1.56h0l1.74-1.38c-.13,1-.22,2-.32,2.84Zm1.19,2.43h0l-2.25,1.84-1.7-1.84Zm-2.71,2.2h0l-2.06,1.66c.09-1.11.27-2.25.37-3.4Zm-2,2.3h0l2.34-1.84,1.56,1.65v.05l0,.14Zm2.85-2.25h0l1.79-1.42c-.19,1-.32,2-.51,2.8Zm5.23-70.25h0l1.15.92,1.06-.92Zm1.47,1.24h0l1.1.87,0-1.83Zm.6,1h0l-.88-.78-.87.78Zm-1.24-1h0l-1-.88v1.79Zm-1,2h0l1.51,1.52L267.4,122v0Zm1.83,1.88h0l1,1.1,0-2.15Zm1.06,1.75h0l-1.33-1.43-1.42,1.52h2.75Zm-1.7-1.79h0l-1.19-1.24v2.57Zm-1.1,2.75h0l1.52,1.52,1.23-1.52Zm1.84,1.84h0l1.1,1.1-.05-2.3Zm1.14,1.74h0l-1.42-1.37-1.33,1.6h2.75Zm-1.79-1.74h0l-1.28-1.29V130Zm-1.28,2.84h0l1.65,1.57,1.42-1.57Zm2,1.93h0l1.19,1.1-.09-2.34Zm1.19,1.79h0l-1.51-1.47L265,134.91Zm-1.88-1.79h0l-1.33-1.28v2.8Zm.69,4.64h0L268,139l-.1-2.52Zm1.42,1.79h0l-1.74-1.47-1.52,1.52H268Zm-2.11-1.79h0l-1.33-1.15v2.48Zm-1.24,2.71h0l1.79,1.51,1.52-1.51Zm2.16,1.84h0l1.38,1.19-.14-2.43Zm1.38,1.79h0l-1.7-1.47L265,144.28h3.3Zm-2.07-1.79h0L264.64,141v2.8Zm-1.47,2.8h0l1.88,1.6,1.61-1.6ZM267,147h0l1.47,1.29-.14-2.66Zm1.47,1.84h0l-1.84-1.51-1.52,1.51ZM266.25,147h0l-1.56-1.37v1.6l.05.74v.55Zm-1.19,2.71h0l1.56,1.47,1.47-1.47Zm2,1.84h0l1.6,1.42-.13-2.84Zm1.47,2h0l-1.79-1.65-1.7,1.65Zm-2.25-2h0l-1.56-1.37,0,.92v1.19l.05.69Zm-1,2.9h0l1.6,1.33,1.34-1.33Zm2.06,1.79h0l1.56,1.28-.13-2.75Zm1.47,2h0L267,156.58l-1.61,1.61Zm-2.34-2h0l-1.65-1.38.09.69.05,2.2Zm-1.29,2.85h0l1.66,1.46,1.47-1.46Zm2.16,1.83h0l1.88,1.65-.23-3.3Zm1.33,1.93h0L267,161.36l-1.47,1.47Zm-2.2-1.93h0L265,159.71V160l.05.23v1.19l0,.87Zm-.87,2.8h0l1.56,1.33,1.38-1.33Zm2.06,1.79h0l1.89,1.56-.19-3.26Zm1.47,2h0l-1.83-1.57-1.61,1.57Zm-2.34-2h0l-1.61-1.38.05.6v.37l.05,1.93Zm-.92,2.85h0l1.79,1.42,1.29-1.42Zm2.3,1.79h0l1.65,1.42-.23-3Zm1.42,2h0l-1.88-1.51-1.47,1.51Zm-2.39-1.93h0l-1.83-1.51c0,1.15.14,2.25.18,3.31ZM266,173h0l1.74,1.33L269.1,173Zm2.25,1.75h0l2,1.6c-.14-1.15-.23-2.2-.27-3.35h0Zm1.52,2h0l-2-1.56-1.42,1.56Zm-2.44-1.93h0l-1.7-1.38c.05,1,.14,2,.19,3Zm-.55,2.8h0l1.52,1.24,1.14-1.24Zm2,1.65h0l1.84,1.47c-.09-1-.23-2.06-.28-3.12h0Zm1.75,2.16h0l-2.21-1.74-1.6,1.74Zm-2.67-2.11h0l-2-1.65c0,1.19.18,2.34.28,3.44Zm-1.19,3h0l1.93,1.56,1.51-1.56Zm2.43,1.92h0l2,1.66c-.14-1.1-.23-2.25-.36-3.36Zm1,1.66h0l-1.37-1.2-1.15,1.2Zm-1.88-1.56h0l-1.88-1.52a29.17,29.17,0,0,0,.37,3.08ZM267,186.75h0l2.25,1.84,1.7-1.84Zm2.76,2.2h0l1.88,1.52c-.09-1-.28-2.07-.37-3.12Zm1.88,2.3h0l-2.3-1.84-1.7,1.79.05.05Zm-2.8-2.25h0L267,187.44c.13,1.15.32,2.15.5,3Zm-15.15,15.15h5.14l-2.16-1.84ZM259,200h0l-2.25,1.42L255.09,200Zm-1.7,1.93h0l3-1.93h.41l-.55,4.13h-.18Zm14.37.18h0l-2.16,2h5.65ZM269.28,200h0l2.3,1.33L273,200Zm1.74,1.79h0L267.81,200l.69,4.13Zm-19.78,9.59h7.11l-2.84-2.8Zm8-6.38h0l-3.72,2.44L253.07,205Zm-3,3.12h0l3.58-2.29L259,211Zm16.9.37h0l-2.89,2.89h7.62ZM269.37,205h0l3.77,2.34,2.34-2.34Zm3.08,3h0l-3.77-2.34.78,4.91.05.37Zm2.34,8h0l-3,3h7.94Zm-4.41-3.81h0l4.37,2.61,2.7-2.61Zm3.58,3.4h0l-4.08-2.49.87,5.56Zm-25.43,3.39h8l-3.12-3Zm9.32-6.79h0l-4.32,2.61-2.75-2.61Zm-3.58,3.4h0l4.4-2.62-.91,5.92Zm18.18,12.16h0v1.43c.32.13.64.27.92.36Zm-.37,1.29h0v-2l-.59-1.15v2.94Zm-1-.32h0v-3.59l-.37-.73h-.23v4.09Zm-1-.37h0v-3.95h-.55v3.81Zm-1-.19h0v-3.76h-.6v3.58Zm-1-.22h0v-3.54h-.6v3.44Zm-1-.19h0v-3.35h-.59v3.26Zm-1-.14h0v-3.21h-.6v3.17Zm-1,0h0v-3.17h-.59v3.12Zm-1,0h0v-3.12h-.59v3.12Zm-1,0h0v-3.12h-.56v3.12Zm-1,0h0v-3.12h-.6v3.17Zm-1,.09h0v-3.21h-.6v3.26Zm-1,.1h0v-3.31h-.6v3.35Zm-1,.18h0v-3.49h-.6v3.58Zm-1,.14h0v-3.63h-.6v3.81Zm-1,.27h0v-3.9h-.42l-.18.32v3.77Zm-1,.28h0v-3.08l-.55,1.15v2.11ZM286,250h0l2.39-3-5.14-2.29Zm3.26-4h0l2.34-2.89h-8.77Zm3.22-2h0l-2,2.57,4.36,1.88Zm-2.9,3.58h0l-2.8,3.54h9.37l-.41-.83Zm-7.89-5.83h0l2.66-1.88-4.41-1.56Zm3.72-2.57h0l2.48-1.7h-7.07Zm3.81-1.52h0l-2.71,1.89,4.5,1.6Zm-3.81,2.62h0l-2.8,2h8.21Zm-5.47-3.67h7.76l-5.09-1.84Zm-1.1-.37h0l2.66-1.84-4.45-1.6Zm3.77-2.61h0l2.61-1.8h-7.62Zm3.71-1.43h0L283.7,234l4.4,1.61Zm-10.19-1.19h9.6l-.88-1.7h-9.59ZM241.5,250.06h0l-2.43-3.12,5.28-2.29Zm-3.3-4.13h0L235.9,243h8.77Zm-3.13-2h0l1.93,2.52-4.18,1.84Zm2.81,3.53h0l2.84,3.54h-9.27l.41-.87Zm7.3-4.45h0l.69-1.33-2.71-1.93,4.5-1.61-1.79,3.54Zm-3.13-3.95h0l-2.43-1.7h7.07Zm-3.67-1.47h0l2.62,1.84-4.41,1.6Zm3.67,2.57h0l2.85,2h-8.26Zm5.51-3.67H239.8l5.1-1.84Zm36.83-8.17h-9.6l-2-3.86h9.59Zm-35.73,7.85h0l-2.7-1.89,4.59-1.6Zm-3.76-2.66h0l-2.62-1.8h7.58Zm-3.72-1.38h0L243.8,234l-4.36,1.56Zm10.29-1.24h-9.65l.88-1.7h9.64Zm1.28-2.57h-9.59l2-3.86h9.59Zm8.54-25.81h6l2.52,16.53H258.67l1.29-8.45Zm5.83-.87h-5.74l.28-1.65h5.19ZM255.32,229h0v-1.52l-1,1.93a7.61,7.61,0,0,1,1-.41Zm20.07,4.5h0l-.51-1a22.46,22.46,0,0,0-21.94-.41l-.46.92a22.31,22.31,0,0,1,22.91.46Z"/><path class="cls-2" d="M179.11,215.12v3.26h.41v.6h-.14c11.71,7.39,5.15,9.69,6.52,11.16-2.25,0-4.5,0-6.79,0h-6.89c.87-1.61-5.92-3.72,6.2-11.16h-.14v-.6h.41v-3.07h-.27a1.22,1.22,0,0,1-1.15-.83,1.11,1.11,0,0,0,.83.32,1.27,1.27,0,0,0,1.28-1.24,1,1,0,0,0-.09-.41,1.11,1.11,0,0,1,.41.87,1.3,1.3,0,0,1-.59,1.1ZM156.24,233c.14-.27-1-.59,1.06-1.83,1.93,1.24.87,1.61,1.1,1.83Zm-.09,2.12h2.2v-1.2h-2.2Zm.41-.28H157v-.69h-.42Zm1,0h.37v-.69h-.37Zm-.5,0h.37v-.69h-.37Zm-1.2-1.06h2.81v-.22h-2.81Zm0-.41h2.81v-.23h-2.81Zm0,2.11h2.81v-.18h-2.81Zm0,.28h2.81v-.18h-2.81Zm.24,0h2.29v5.7h-2.29Zm2.29,6.07v4.91h-2.29v-4.91Zm0,5.28v3h2.71v-14l4.54-.92v15h.19V232.71h.6v-.19h5.32v-1.6h14.33v1.33h0v.27h5.51v.19h.46v17.45h.27V235l4.41,1.24v14h3v-3H202v3h4.09v-4.92h3.67v4.92h4.68v1.23H143.52v-1.23h4.83v-4.92h3.71v4.92h4.05v-3Zm-6.52-24.89c-.23-.41,1.56-.92-1.7-2.89-3.17,1.93-1.42,2.52-1.79,2.89Zm.09,3.44h-3.53v-1.93H152Zm-.64-.41h-.6v-1.1h.6Zm-1.65,0h-.6v-1.1h.6Zm.82,0h-.59v-1.1h.59Zm2-1.61h-4.59v-.5h4.59Zm0-.73h-4.59v-.46h4.59Zm0,3.35h-4.59v-.46h4.59Zm0,.46h-4.59v-.32h4.59Zm61.89,27.55H143.52v-2.48h70.89Zm-62.35-27.46h-3.71v9.23h3.71Zm54.14-4.59c.27-.41-1.56-.92,1.74-2.89,3.17,1.93,1.42,2.52,1.79,2.89Zm3.49,3.44v-1.93h.5v-.59H205.6v.59h.5v1.93h-.5v1.15h.46v9.23h3.67v-9.23h.46v-1.15Zm-2.9-.41h.6v-1.1h-.6Zm1.61,0H209v-1.1h-.64Zm-.78,0h.6v-1.1h-.6Zm-2-2.2h4.59v-.6H205.6Zm4.13,13.59v7.94h-3.67v-7.94Zm-37.1,13.5h12.63V233.49H172.63ZM201.88,233c-.14-.27,1-.59-1.06-1.83-2,1.24-.87,1.61-1.1,1.83Zm.09,2.12h-2.2v-1.2H202Zm-.46-.28h-.36v-.69h.36Zm-1,0h-.37v-.69h.37Zm.46,0h-.37v-.69H201Zm1.24-1h-2.8v-.27h2.8Zm0-.46h-2.8v-.23h2.8Zm0,2.11h-2.8v-.23h2.8Zm0,.32H202v5.7h-2.25v-5.7h-.27v-.22h2.8Zm-2.53,6.07v4.91H202v-4.91Zm-51.37-5.19v7.94h3.71v-7.94Zm16.06,8.72v3.4l-2.34,0v-3.16c0-.6,1.11-1.57,1.15-1.57s1.19.69,1.19,1.29Zm0-5.69V243l-2.34.28V240c0-.64,1.11-1.6,1.15-1.6s1.19.64,1.19,1.33Zm29.25,5.69v3.4l2.34,0v-3.16c0-.6-1.14-1.57-1.19-1.57s-1.15.69-1.15,1.29Zm0-5.69V243l2.34.28V240c0-.64-1.14-1.6-1.19-1.6s-1.15.64-1.15,1.33Zm-6.89-7.44c.28-.51-1.92-1.1,2.12-3.54h-.19v-.18h.14v-.83h-.14a.44.44,0,0,1-.36-.27.51.51,0,0,0,.27.09.4.4,0,0,0,.41-.37.17.17,0,0,0,0-.13.27.27,0,0,1,.14.27.42.42,0,0,1-.14.32v.92h.09v.18h-.18c3.85,2.35,1.83,3.08,2.2,3.54Zm-6.65,8.17V243h2.66v-2.71c0-1.56-3.63-3.67-3.81-3.67s-3.81,2.11-3.81,3.67V243h2.62v-2.62c0-.46,1.1-1.1,1.19-1.1s1.15.64,1.15,1.1Zm0,5.83v2.57h-2.34v-2.57c0-.5,1.1-1.14,1.19-1.14s1.15.64,1.15,1.14Zm2.66-2.29h-7.62v4.86h-1.1V234.87h9.78v13.95h-1.06ZM168,241h.91v1.74H168Zm0,6.06h.91v1.74H168Zm21.07,0H190v1.74h-.92Zm0-6.06H190v1.74h-.92Zm-21.9-7.39H168v1.24h-.83Zm23,0H191v1.24h-.87Zm-1.38,0h.83v1.24h-.83Zm-1.42,0h.82v1.24h-.82Zm-17.31,0h.82v1.24H170Zm-1.43,0h.83v1.24h-.83Zm19.24,10.19h1.29a6.26,6.26,0,0,0-.69.46,1.58,1.58,0,0,0-.64,1.05V249h3.53v-3.68a1.64,1.64,0,0,0-.69-1.05,3.5,3.5,0,0,0-.69-.46h1.38v-.37h-3.49Zm-21.12-6.25h1.56c-.27.14-.78.56-.92.65s-.69.64-.69,1.05V243h3.54v-3.68a1.64,1.64,0,0,0-.69-1.05,4.05,4.05,0,0,0-.92-.65h1.61v-.36h-3.49Zm0,6.25H168a4.26,4.26,0,0,0-.69.46c-.27.23-.69.64-.69,1.05V249h3.54v-3.68a1.5,1.5,0,0,0-.69-1.05,3.14,3.14,0,0,0-.64-.46h1.33v-.37h-3.49Zm21-6.25h1.65a3.31,3.31,0,0,0-.92.65,1.49,1.49,0,0,0-.68,1.05V243h3.53v-3.68a1.64,1.64,0,0,0-.69-1.05,10.5,10.5,0,0,0-.92-.65h1.47v-.36h-3.44ZM169.19,227a.27.27,0,0,1,.14.27.42.42,0,0,1-.14.32v.92h.14v.18h-.42v-.18h.14v-.83h-.14a.52.52,0,0,1-.36-.27.72.72,0,0,0,.27.09.41.41,0,0,0,.42-.37.15.15,0,0,0-.05-.13Zm-.09,1.69c3.85,2.35,1.88,3.08,2.2,3.54H167c.32-.51-1.93-1.1,2.11-3.54Z"/><path class="cls-2" d="M229.93,182.48h-.82V176.6l-.1.09-.13-.09v1.88l-.19-.22-.18.32-.18.32-.23-.32-.19-.32-.23.32-.18.32-.23-.32-.18-.32-.23.32-.19.32-.18-.32-.23-.32-.18.32-.23.32-.19-.32-.23-.32-.18.32-.18.32-.23-.32-.19-.32-.23.32-.18.32-.23-.32-.18-.32-.23.32-.19.32-.18-.32-.23-.32-.18.32-.23.32-.19-.32-.23-.32-.18.32-.18.32-.23-.32-.19-.32-.23.32-.18.32-.23-.32-.18-.32-.23.32-.19.32-.18-.32-.23-.32-.18.32-.23.32-.19-.32-.23-.32-.18.32-.18.32-.23-.32-.19-.32-.23.32-.18.32-.23-.32-.18-.32-.23.32-.19.32-.18-.32-.23-.32-.18.32-.23.32-.19-.32-.23-.32-.18.32-.18.32-.23-.32-.19-.32-.18.27V176.6l-.14.09-.14-.09v5.88h-.78v-2.3l-.09.14-.13-.14v19.06h16.75V180.18l-.14.14-.09-.14Zm.51,71.81H212.67V243.68h17.77Zm-1.75-11.43v-9.92H228v9.92h-.55v-9.92h-.78v9.92h-.55v-9.92h-.74v9.92h-.6v-9.92H224v9.92h-.6v-9.92h-.73v9.92h-.6v-9.92h-.73v9.92h-.6v-9.92H220v9.92h-.56v-9.92h-.78v9.92h-.55v-9.92h-.73v9.92h-.6v-9.92h-.73v9.92h-.6v-9.92h-.73v9.92h-.6V222.33h15.15v20.53ZM228,232.39h.73v-9.6H228Zm-13.22,0h.73v-9.6h-.73Zm1.33,0h.73v-9.6h-.73Zm1.33,0h.73v-9.6h-.73Zm1.28,0h.78v-9.6h-.78Zm1.34,0h.73v-9.6H220Zm1.33,0h.73v-9.6h-.73Zm1.33,0h.73v-9.6h-.73Zm1.33,0h.73v-9.6H224Zm1.33,0h.74v-9.6h-.74Zm1.29,0h.78v-9.6h-.78ZM215.1,176.1l-.55-.46-.5.46.5.55Zm14.42,0-.51-.46-.5.46.5.55Zm1,3.58-.51-.46-.45.46.45.55Zm-16.53,0-.46-.46-.5.46.5.55Zm.41-4v-.32h.28v.32l-.14-.13Zm14.47,0v-.32h.23v.32l-.1-.13Zm-15.47,3.58v-.36h.22v.32l-.09-.09Zm16.52,0v-.32h.23v.36l-.14-.13ZM218.18,173,216,178.48l.05.05,0,.09.41-.59.32.5.09.09.1-.09.32-.5.41.64.09-.14.32-.55.28.55.14.14.36-.64.37.5.05.09.09-.09.32-.5.32.5.09.09.1-.09.32-.5.32.5.09.14.09-.14.32-.55.28.55.14.14,0-.14.32-.5.37.5.05.09L223,178l.32.5.09.09.1-.09.32-.5.41.64.09-.14.32-.55.32.55.1.14.36-.64.37.5,0,.09.41-.59.32.5.09.09.1-.09.32-.5.41.59.05-.09,0-.05-2.2-5.46Zm.73,3.72-.45-.78-.14-.18-.6,1,.18.09.42-.69.36.69Zm3.45-1.84-.46-.82-.09-.19-.6,1,.18.1.42-.69.36.69Zm2.29,0-.5-.82-.09-.19-.6,1,.18.1.42-.69.36.69Zm1.15,1.84-.5-.78-.1-.18-.55,1,.14.09.41-.69.42.69Zm-2.34,0-.41-.78-.14-.18-.6,1,.18.09.42-.69.41.69Zm-2.3,0-.41-.78-.14-.18-.59,1,.18.09.41-.69.37.69Zm-.87-1.84-.41-.82-.14-.19-.6,1,.19.1.41-.69.37.69Zm-3.53,4.83H215.1V182h1.66Zm11.47,0h-1.6V182h1.6Zm-2.25,0h-1.69V182H226Zm-2.29,0H222V182h1.7Zm-2.3,0h-1.7V182h1.7Zm-2.34,0H217.4V182h1.65Zm3.4-20.62h-1.33v-1h1.33Zm-4.32,7.39-.5-.5-.51.5.51.51Zm8.31,0-.5-.5-.51.5.51.51Zm-.78,2-.18.36-.18.37h-.05l-.14-.37-.23-.36-.23.36-.14.37h0l-.18-.37-.23-.36-.18.36-.18.37h0l-.19-.37-.18-.36-.23.36-.19.37h0l-.18-.37-.18-.36-.23.36-.14.37h-.05l-.18-.37-.18-.36-.23.36-.14.37h-.05l-.18-.37-.18-.36-.23.36-.14.37h0l-.18-.37-.18-.36-.23.36-.14.37h0l-.18-.37-.23-.36-.18.36-.19.37h0l-.14-.37-.23-.36-.22.36-.14.37h0l-.14-.37-.23-.36-.13.22v-1.6l-.14.09-.14-.09v2.11h0v3.54h8.59v-3.54h0V167.1l-.14.09-.14-.09v1.6Zm-3.85-10.89c0,.14-.05.28-.05.42h.05v-.42Zm-.19,1.66c-.5,3.17-2,6-3,8.95v0l.37.65,0,.09.37-.74.37.65,0,.09,0-.09.37-.65.36.74,0-.09.37-.65.36.74.05-.09.37-.65.32.65,0,.09.05-.09.37-.65.36.74.05-.09.37-.65.37.74,0-.09.37-.65.27.65.09.09.05-.09.32-.65c.09-.13-2.8-7.62-3-8.9Zm.74,4.31-.46-.73-.09-.23-.6,1,.18.14.42-.69.36.69Zm-1.75,3.95-.41-.82-.14-.19-.6,1,.19.09.41-.73.37.73Zm1.75,0-.46-.82-.09-.19-.6,1,.18.09.42-.73.36.73Zm1.74,0-.46-.82-.13-.19-.6,1,.23.09.37-.73.41.73Zm-2.75-1.88-.46-.83-.14-.18-.55,1,.18.09.37-.73.41.73Zm2,0-.46-.83-.09-.18-.6,1,.14.09.46-.73.36.73Zm-5.88.32v-.32h.28V166l-.14-.14Zm8.31,0v-.32h.28V166l-.14-.14Zm-6.56,4H218v2.3h1.29Zm6.38,0h-1.29v2.3h1.29Zm-1.61,0h-1.29v2.3H224Zm-1.56,0h-1.29v2.3h1.29Zm-1.61,0h-1.28v2.3h1.28Zm7.21,51.28h.74V210.72h-.74Zm-13.27,0h.74V210.72h-.74Zm1.33,0h.74V210.72h-.74Zm1.34,0h.73V210.72h-.73Zm1.33,0h.73V210.72h-.73Zm1.33,0h.73V210.72h-.73Zm1.28,0h.78V210.72h-.78Zm1.33,0h.74V210.72h-.74Zm1.34,0h.73V210.72h-.73Zm1.33,0h.73V210.72h-.73Zm1.33,0h.73V210.72h-.73Zm1.33-11h.74v-9.64h-.74Zm-13.27,0h.74v-9.64h-.74Zm1.33,0h.74v-9.64h-.74Zm1.34,0h.73v-9.64h-.73Zm1.33,0h.73v-9.64h-.73Zm1.33,0h.73v-9.64h-.73Zm1.28,0h.78v-9.64h-.78Zm1.33,0h.74v-9.64h-.74Zm1.34,0h.73v-9.64h-.73Zm1.33,0h.73v-9.64h-.73Zm1.33,0h.73v-9.64h-.73Zm2.62-10H214.23V221.6h15.11Zm-13.18-2.3h-.87v.88h.87Zm12.07,0h-.87v.88h.87Zm-1.1,0h-.87v.88h.87Zm-1.1,0h-.87v.88H226Zm-1.1,0h-.87v.88h.87Zm-1.1,0H223v.88h.88Zm-1.11,0h-.87v.88h.87Zm-1.1,0h-.87v.88h.87Zm-1.1,0h-.87v.88h.87Zm-1.1,0h-.83v.88h.83Zm-1.06,0h-.87v.88h.87Zm-1.1,0h-.87v.88h.87Zm4.55-6.42c-.09,0-.19,0-.28,0l-.32.32c-.05.19-.05.32-.14.42a.23.23,0,0,1-.23,0,1.14,1.14,0,0,0-.23-.28c-.09-.05-.09-.14,0-.23a.53.53,0,0,1,.37-.14l.37-.32c-.09-.05-.09-.18-.09-.27v-.14L218,187.16v-.09H218s.05,0,.05,0l3.49,3.26s.14,0,.23,0a.77.77,0,0,1,.32.09l.55-.51a.09.09,0,0,1-.09-.09.13.13,0,0,1,0-.23.89.89,0,0,1,.55-.14l.09-.09v-.23h.32v.28h-.18l-.14.13a1,1,0,0,1-.09.56.34.34,0,0,1-.28,0l0-.05-.55.55a.71.71,0,0,1,.09.28c0,.09-.05.13-.05.18a1.27,1.27,0,0,0,.69.5,0,0,0,0,1,.05,0c0,.05,0,.09-.05.09s-.09.05-.09.09,0,.05,0,.1a.19.19,0,0,1,0,.09c-.1,0-.14,0-.14,0a.1.1,0,0,0-.09.1h-.05s0,0-.09,0a1.15,1.15,0,0,0-.55-.69Zm-.14-5.33h-.32l0-.6h.37Zm-.6.05c-.14,0-.27,0-.41.09l-.14-.6h0a1.86,1.86,0,0,1,.51-.09h0Zm-.64.13a.61.61,0,0,1-.32.1l-.23-.56.41-.13h0Zm-.51.19a1.35,1.35,0,0,1-.41.18l-.32-.5a1.43,1.43,0,0,1,.5-.23Zm-.64.32a.85.85,0,0,1-.27.18l-.37-.5a1.87,1.87,0,0,0,.37-.23Zm-.46.32a.73.73,0,0,1-.23.18l.09.1.19-.19h0l.05,0c.14-.09.23-.19.37-.28h0l1,1.7a.92.92,0,0,0-.23.14l.09.09a2.33,2.33,0,0,1,1.61-.55,2.64,2.64,0,0,1,1.74.69h.19a1.71,1.71,0,0,0-.47-.37l.92-1.7h.05l.5.37,0,0h0a1.49,1.49,0,0,0,.32.28,2.74,2.74,0,0,0,.37.41V188l.05,0a1.44,1.44,0,0,1,.22.37l-1.65,1c-.09-.14-.23-.32-.32-.46v.23a2.63,2.63,0,0,1,.64,1.7,2.81,2.81,0,0,1-.78,1.88,2.76,2.76,0,0,1-1.83.78,2.81,2.81,0,0,1-1.89-.78,2.63,2.63,0,0,1-.78-1.88,2.38,2.38,0,0,1,.55-1.57l-.09-.09a2.31,2.31,0,0,1-.14.19l-1.65-1a1.86,1.86,0,0,1,.37-.5v-.05h0s0,0,.09-.09l-.09-.09c-.05,0-.05.09-.09.13l-.51-.41a.37.37,0,0,0,.19-.18V187l.13,0c0-.09.14-.09.23-.09a2.35,2.35,0,0,1,.33-.23h0Zm-.78.83h0l-.42-.37h0l.46.32ZM218,188a1.06,1.06,0,0,0-.23.37l-.27-.19-.28-.14h0a2.67,2.67,0,0,1,.28-.41h0Zm-.37.55a2.1,2.1,0,0,0-.13.32l-.6-.27c0-.1.14-.23.18-.33h0Zm-.27.55c-.05.14-.09.28-.14.41l-.55-.18h-.05c.05-.18.14-.32.19-.5h0Zm-.14.5h0l-.55-.13h0Zm0,.14c0,.1,0,.19-.09.33l-.59-.1c0-.13,0-.27.09-.41v0Zm-.09.42h0l-.55-.05h0v0Zm0,.14a1.39,1.39,0,0,0,0,.41h-.6a1.77,1.77,0,0,1,.05-.51Zm0,.68a.88.88,0,0,0,0,.32l-.64.05h0V191Zm0,.55c.05.14.05.33.09.46l-.59.14h0a1.76,1.76,0,0,1-.09-.5h0Zm.14.56h0l-.55.13h0Zm0,.13c.05.09.09.19.14.28l-.6.23v0c0-.13-.09-.27-.14-.41h.05Zm.18.42h0l-.5.23h0v-.05Zm.05.09a1.83,1.83,0,0,0,.18.41l-.55.32h0c-.09-.13-.14-.32-.23-.46l0,0Zm.32.64a.52.52,0,0,0,.18.23l-.55.37h0c0-.09-.13-.19-.18-.32h0Zm.32.41c.09.14.19.23.28.37l-.42.46h0c-.09-.14-.23-.28-.32-.41h0Zm.46.55c.09.05.14.14.23.19l-.37.5h0l-.28-.27h0Zm.41.37.37.23-.27.55h0a2,2,0,0,1-.41-.32h0Zm.6.37.28.14-.23.55a1,1,0,0,1-.37-.18h0Zm.51.23.41.14-.14.59h0l-.5-.13Zm.5.18h0l-.09.51h-.05Zm.14.05c.09,0,.23,0,.32,0l-.09.59h0c-.14,0-.28,0-.37,0h0Zm.41.09h.05l-.09.5h0Zm.14,0c.14,0,.32,0,.46,0v.59a2.5,2.5,0,0,1-.55,0h0Zm.69,0a.72.72,0,0,0,.32,0l.09.6v0h-.41Zm.59,0c.14,0,.28,0,.42-.09l.14.59h0c-.14,0-.33,0-.51.1h0Zm.56-.14h0l.13.51h0l-.09-.51Zm.09,0a1.13,1.13,0,0,0,.32-.1l.23.56v0a1,1,0,0,1-.37.09h0Zm.41-.14h0l.18.5h0Zm.14,0a2.13,2.13,0,0,0,.37-.18l.32.51v0a2.47,2.47,0,0,0-.46.23v-.05Zm.6-.32a.85.85,0,0,0,.27-.18l.37.5c-.09.09-.23.14-.32.23h0Zm.36-.23h0l.32.42h0Zm.09-.09a1.87,1.87,0,0,0,.33-.28l.46.42h0a3.48,3.48,0,0,1-.42.37h0Zm.51-.46a1.88,1.88,0,0,0,.18-.23l.51.37a1.38,1.38,0,0,1-.23.27Zm.37-.46a1.11,1.11,0,0,0,.23-.36l.55.32a4.64,4.64,0,0,1-.28.46h0Zm.36-.55c.05-.09.1-.18.14-.27l.6.22a1.39,1.39,0,0,0-.18.37h0Zm.23-.5a1.39,1.39,0,0,0,.14-.42l.6.14H227a3,3,0,0,0-.19.51Zm.23-.65c0-.09.05-.23.05-.32l.64.09c0,.1,0,.23-.09.37h0Zm.1-.46h0l.55.1H227Zm0-.13a1.5,1.5,0,0,0,0-.42h.6a1.77,1.77,0,0,1-.05.51Zm0-.69a.68.68,0,0,0,0-.28l.64-.09h0v.37Zm0-.41h0v0l.55-.05h0v.05Zm0-.14c0-.14,0-.28-.1-.42l.6-.14v0a2.11,2.11,0,0,1,.09.55h0Zm-.14-.65a2.52,2.52,0,0,0-.14-.32l.6-.23h0a1.25,1.25,0,0,1,.09.37h0Zm-.19-.45h0l.51-.23h0v0Zm0-.1a1.66,1.66,0,0,0-.19-.41l.51-.28h0c.09.14.13.33.23.46Zm-.32-.59-.14-.28.46-.37a1.6,1.6,0,0,1,.23.32Zm-.32-.51a1.49,1.49,0,0,1-.28-.32l.46-.41a2.91,2.91,0,0,0,.32.36v.05Zm-.46-.46a.63.63,0,0,0-.23-.23l.36-.5.33.27Zm-.33-.32h0l.37-.41h0l-.32.41Zm-.09,0c-.14-.1-.23-.19-.36-.28l.32-.51c.13.1.27.19.41.28Zm-.59-.37a1.39,1.39,0,0,0-.28-.19l.23-.55h0a1.3,1.3,0,0,1,.37.19Zm-.51-.28-.41-.14.18-.59h0c.14,0,.32.13.46.18h0Zm-.64-.18c-.09,0-.23,0-.32-.09l.09-.6c.14.05.27.05.37.09h0Zm-.42-.09h0l.09-.55h0Zm-.13,0a1.44,1.44,0,0,0-.46-.05v-.6h.55Zm-2.8.64.36-.23H220l.14-.05h0l.37-.13h0l.09-.05h.09c.14,0,.28,0,.42-.09h.23v0h.32v1.93a3.2,3.2,0,0,0-1.15.32Zm2.34-.6a1.15,1.15,0,0,1,.41,0h.23a1.58,1.58,0,0,1,.32.09h0l.14.05h0l.42.13v.05h0s.09,0,.14,0h0l.05,0h0c.09,0,.18.09.27.14l-1,1.65a3.52,3.52,0,0,0-1.15-.32Zm4,2.48a2,2,0,0,1,.19.42h0l0,0s0,.09,0,.09v0h0l.14.5h0a3.73,3.73,0,0,1,.13,1h-1.93a3,3,0,0,0-.27-1.15Zm.55,2.34a1.5,1.5,0,0,1,0,.42h0a2.74,2.74,0,0,1-.09.55h0a4.85,4.85,0,0,1-.42,1.14l-1.7-1a3,3,0,0,0,.32-1.15Zm-.69,2.3a1.64,1.64,0,0,1-.22.41l-.1.09,0,0h0c-.09.09-.14.18-.19.23l-.09,0,0,.09h0l-.1,0H225a1.83,1.83,0,0,0-.32.28h0v0l0,0-.37.23-1-1.7a3,3,0,0,0,.47-.37,1.67,1.67,0,0,0,.36-.46l1.65,1ZM224,195a2.57,2.57,0,0,1-.37.18v0l-.09,0,0,0-.1,0h0a.72.72,0,0,0-.27.09h0s-.14,0-.18,0h0a1.76,1.76,0,0,1-.5.09h-.09a1,1,0,0,1-.37.05v-1.93a3.52,3.52,0,0,0,1.15-.32Zm-2.34.55a1.13,1.13,0,0,1-.41-.05H221a1.93,1.93,0,0,1-.33-.09h0a5,5,0,0,1-.68-.23H220c-.14,0-.28-.14-.41-.18l1-1.7a3.52,3.52,0,0,0,1.15.32Zm-2.34-.69-.37-.23h0l0,0-.14,0v0h0c-.05-.09-.14-.14-.23-.23h0l0,0-.09-.09-.1,0a1.81,1.81,0,0,1-.27-.32h0l-.09-.14-.05-.05-.14-.27h0l1.69-1a1.69,1.69,0,0,0,.42.46,3.84,3.84,0,0,0,.46.42l-1,1.65Zm-1.66-1.75a1.41,1.41,0,0,1-.18-.45h0c0-.14-.1-.33-.14-.46h0a.39.39,0,0,1-.05-.23h0a3.61,3.61,0,0,1-.14-1h1.93a2.58,2.58,0,0,0,.32,1.15Zm-.55-2.34a1.38,1.38,0,0,1,0-.45h0v-.23h0c.05-.1.05-.23.09-.33h0c0-.09,0-.14.05-.18v-.05h0a2.08,2.08,0,0,1,.14-.36h0l0-.09V189c0-.05,0-.05,0-.09h0l.13-.28,1.7,1a2.61,2.61,0,0,0-.32,1.15ZM228,184.59h-6.19a6.24,6.24,0,0,1,6.19,6.25Zm-4.86,1.06h0l-.13.55Zm2.39,1.42h0l-.37.41,0,0Zm1.42,2.39h0l-.55.13Zm0,2.75h0l-.55-.13h0Zm-1.38,2.39h0l0,.05-.37-.42h0Zm-7.53.05h0l0-.05.36-.37h0Zm2.34-9h.05l.09.55Zm3.54.27h0l-.23.51Zm2.16,1.7h0l-.46.37v-.05Zm.64,5.33h0l-.55-.23h0Zm-.74,1.19h0l-.45-.32Zm-3.58,2h0l0-.55Zm-2.71-.37h0l0,0,.23-.51Zm-1.23-.73h0V195l.36-.41Zm-1-1h0l.46-.32Zm-1-2.57h0l.55,0Zm.37-2.76h0l.5.23Zm1.74-2.15h0v0l.32.46V187Zm1.2-.69h0l.23.5-.05.05Zm1.37-.32h0l.05.55Zm.65-1h-6.25v6.25a6.25,6.25,0,0,1,6.25-6.25Zm-6.25,6.25v6.24h6.25a6.25,6.25,0,0,1-6.25-6.24Zm6.25,6.24H228v-6.24a6.24,6.24,0,0,1-6.19,6.24Zm0-.32a5.9,5.9,0,1,1,5.87-5.92,5.94,5.94,0,0,1-5.87,5.92Zm5.23-.37a.45.45,0,0,1-.46-.5.43.43,0,0,1,.46-.42.46.46,0,0,1,.46.42.47.47,0,0,1-.46.5Zm0-10.28a.46.46,0,0,1-.46-.46.44.44,0,0,1,.46-.46.46.46,0,0,1,.46.46.49.49,0,0,1-.46.46Zm-10.42,0a.46.46,0,0,1-.46-.46.43.43,0,0,1,.46-.46.44.44,0,0,1,.46.46.46.46,0,0,1-.46.46Zm0,10.28a.44.44,0,0,1-.46-.5.43.43,0,0,1,.46-.42.43.43,0,0,1,.46.42.45.45,0,0,1-.46.5Zm11.57-12v12.85H215.38V184.41Zm0-1.38h-.87V184h.87Zm-12.07,0h-.87V184h.87Zm1.1,0h-.87V184h.87Zm1.1,0h-.87V184h.87Zm1.06,0h-.83V184h.83Zm1.1,0h-.87V184h.87Zm1.1,0h-.87V184h.87Zm1.1,0h-.87V184h.87Zm1.11,0H223V184h.88Zm1.1,0h-.87V184h.87Zm1.1,0h-.87V184H226Zm1.1,0h-.87V184h.87ZM214.78,198.6H215V183h-.19Zm-.92,0h.23V183h-.23Zm.46,0h.23V183h-.23Zm14.28,0h.28V183h-.28Zm.92,0h.23V183h-.23Zm-.46,0h.23V183h-.23Z"/><path class="cls-2" d="M399.22,197.22v-.65l-1.89-.91v3.16Zm-41.46-17.08h13.72v4H357.76Zm13.72,4.64v6.1H357.76v-6.1Zm0,7.07v11H357.76v-11Zm-10.24-10.47h2.35v.5h-2.35Zm8,5.37v2.8h-2.2v-2.8a1.06,1.06,0,0,1,1.1-.92,1,1,0,0,1,1.1.92Zm-3.49,0v2.8h-2.2v-2.8a1,1,0,0,1,1.1-.92,1,1,0,0,1,1.1.92Zm-3.53,0v2.8h-2.21v-2.8a1,1,0,0,1,1.1-.92,1,1,0,0,1,1.11.92Zm3.44,8.17H368v.46H365.7Zm-2.89.09h2.34v.46h-2.34Zm1.65.6h2.34v.5h-2.34Zm1.38.87h2.34V197h-2.34Zm-2.76,0h2.34V197h-2.34Zm-1.79,4.69h2.3v.5h-2.3Zm-1.15-.6h2.34v.5h-2.34Zm-1.14-.64h2.34v.46H359Zm8.9-.14h2.34v.5H367.9Zm-1.33-19h2.34v.5h-2.34Zm-3.67,1.69h2.34V183H362.9Zm-23.1,33.34H363V234H339.8Zm23.24,19v19.47H339.8V234.82Zm-6.16,14.37h3.95V250h-3.95Zm-3.72-8.31h3.95v.83h-3.95Zm-4.82.18h4v.83h-4Zm2.76,1.06h3.95V243H351.1Zm2.29,1.47h3.95v.83h-3.95Zm-4.63,0h3.9v.83h-3.9Zm-3.13,7.94h3.95v.83h-3.95Zm-1.88-1.05h3.95v.82h-3.95Zm-1.88-1.11h3.95v.88h-3.95Zm5.42-22.26v4.73h-3.72v-4.73a1.88,1.88,0,0,1,3.72,0Zm12,0v4.73H355.6v-4.73a1.72,1.72,0,0,1,1.83-1.61,1.8,1.8,0,0,1,1.89,1.61Zm-6,0v4.73h-3.72v-4.73a1.88,1.88,0,0,1,3.72,0ZM345.59,218h4v.82h-4Zm9.09-1h3.95v.83h-3.95Zm-6.29,2.85h3.95v.87h-3.95Zm-8.59,2.2H363v.83H339.8Zm24.89-51.42-4.59,3.86h9.46Zm3.95,4v5.15h-7.58v-5.15Zm-4.64,2h1.56v-1.52H364Zm40.13,16.62-6.48,5.46h13.41Zm5.46,5.83v7.3h4.09v31.73H394.44V206.4h4.64v-7.3Zm-6.43,2.48h2.16v-2.16h-2.16Zm-3.9,6.61h3.26v.64h-3.26Zm11.34,7.53v3.86h-3.07v-3.86a1.41,1.41,0,0,1,1.51-1.33,1.48,1.48,0,0,1,1.56,1.33Zm-5,0v3.86h-3.07v-3.86a1.44,1.44,0,0,1,1.51-1.33,1.48,1.48,0,0,1,1.56,1.33Zm-5,0v3.86h-3.07v-3.86a1.55,1.55,0,0,1,3.07,0Zm4.83,11.34h3.26v.69h-3.26Zm-4,.14h3.26v.69h-3.26Zm2.3.87h3.3v.74h-3.3Zm1.93,1.24H409V230h-3.26Zm-3.91,0h3.31V230h-3.31Zm-2.52,6.57h3.26v.69h-3.26Zm-1.56-.88H401v.69h-3.26Zm-1.57-.87h3.26v.69h-3.26Zm12.45-.18h3.26v.64h-3.26Zm-1.88-26.54H410v.64h-3.25Zm-5.15,2.34h3.26v.69H401.6Zm-7.16,1.79h19.24v.92H394.44Zm0,9.92h19.24v1.93H394.44Zm-43-21.49-7.85,6.57h16.25Zm6.65,6.94v8.3H345.36v-8.3Zm-7.8,3.12h2.61v-2.62h-2.61Zm13.31,18.64.65-.32v4.91l1.05-.46v-4.91l2.21-1.06v4.91l1-.5v-4.91l2.21-1.06v4.91l1.06-.5v-4.91l2.2-1.06v4.91l1-.5V223.2l2.2-1v4.91l1.06-.46v-5l2.2-1v4.91l1-.46v-4.91l2.21-1.1v4.91l1.05-.46v-4.91l2.16-1.06v4.92l1.06-.51V217l2.2-1.06v4.91l1-.5v-4.91l2.2-1.06v4.91l.46-.18v16.53l-30.21,14.51Zm33.7-29.85v1l-.87-.41V195.2l-1.93-.92v4.27l-.87-.46v-4.22l-1.88-.92v4.27l-.92-.46v-4.23l-1.84-.91v4.27l-.92-.46V191.2l-1.88-.87v4.18l-.87-.41v-4.23l-1.93-.92v4.23l-.87-.42v-4.22l-1.88-.92v4.23l-.88-.42v-4.22l-1.92-.92v4.22l-.88-.41v-4.22l-1.88-.92v4.22l-.92-.41v-4.23l-1.83-.91v4.22l-.23-.09V202l21.71,10.42V205.8h4.87v-7Z"/><path class="cls-2" d="M148.58,179.22l-.74,6.89-24.38-2.67.73-6.88Zm-19.43,62.85c12.72,0,23.7,5.06,28.15,12.22H100.92c4.54-7.16,15.47-12.22,28.23-12.22Zm-10.83-18.59,25.89,2.85-.13,1.56-26-2.85Zm10-57.81,18.64,2,.14-1.38-18.65-2Zm-4.64,8.54L149.63,177l-.18,1.6-25.9-2.84ZM122.63,184l25.9,2.85-.14,1.6-25.94-2.84Zm-1,9.87,25.89,2.85-.18,1.56-25.9-2.8Zm-1.1,9.83,25.94,2.84-.23,1.61-25.9-2.84Zm-1.06,9.87,25.9,2.85-.19,1.6-25.89-2.85ZM144.53,176l.88-7.9-15.66-1.7-.87,7.9Zm-10.65-5.7-.27,2.8-2.71-.27.27-2.8a1.43,1.43,0,0,1,1.52-1.29,1.4,1.4,0,0,1,1.19,1.56Zm9.32,1.06-.32,2.8-2.71-.32.32-2.8a1.39,1.39,0,0,1,1.52-1.24,1.34,1.34,0,0,1,1.19,1.56Zm-4.63-.51-.33,2.8-2.7-.32.32-2.8a1.3,1.3,0,0,1,1.51-1.24,1.39,1.39,0,0,1,1.2,1.56Zm-11.85,7.35-.5,4.54-1.61-.18.5-4.54a.76.76,0,0,1,.88-.6.72.72,0,0,1,.73.78Zm15.75,42h0l-.55,4.55-1.56-.19.5-4.54a.75.75,0,0,1,.87-.6.87.87,0,0,1,.74.78Zm-2.25-.28h0l-.51,4.6-1.6-.19.5-4.54a.82.82,0,0,1,1.61.13Zm-2.25-.18h0l-.51,4.5-1.56-.14.46-4.59a.77.77,0,0,1,.92-.55.74.74,0,0,1,.69.78Zm-2.2-.27h0l-.51,4.54-1.61-.18.51-4.55c0-.37.41-.6.87-.6s.78.42.74.79Zm-2.25-.28h0L133,223.8l-1.56-.18.46-4.55a.77.77,0,0,1,.87-.59.75.75,0,0,1,.74.73Zm-2.21-.18h0l-.5,4.5-1.61-.14.46-4.59a.77.77,0,0,1,.92-.55.72.72,0,0,1,.73.78Zm-2.25-.28h0l-.5,4.55-1.61-.19.5-4.5a.82.82,0,0,1,.88-.64c.46.09.78.41.73.78Zm-2.25-.23h0l-.46,4.55-1.65-.19.51-4.54a.79.79,0,0,1,.91-.6.75.75,0,0,1,.69.78Zm-2.2-.23h0l-.51,4.55-1.6-.19.5-4.54a.79.79,0,0,1,.87-.6.77.77,0,0,1,.74.78Zm-2.25-.27h0l-.46,4.54-1.65-.18.5-4.5a.79.79,0,0,1,.87-.64c.46.09.78.41.74.78Zm21.16-7.76h0l-.46,4.54-1.65-.18.51-4.55c0-.36.41-.59.87-.59s.78.41.73.78Zm-2.2-.23h0l-.55,4.54-1.56-.18.5-4.55a.76.76,0,0,1,.88-.59.82.82,0,0,1,.73.78Zm-2.25-.23h0l-.5,4.54-1.61-.18.5-4.59a.77.77,0,0,1,.88-.55.73.73,0,0,1,.73.78Zm-2.2-.28h0l-.55,4.55-1.56-.14.45-4.55a.84.84,0,0,1,1.66.14Zm-2.25-.23h0l-.51,4.55-1.6-.19.5-4.54a.76.76,0,0,1,.87-.6.77.77,0,0,1,.74.78Zm-2.25-.23h0l-.51,4.55-1.56-.19.46-4.59a.8.8,0,0,1,.87-.55.74.74,0,0,1,.74.78Zm-2.21-.27h0l-.5,4.54-1.61-.14.51-4.54c0-.41.41-.64.87-.64s.78.41.73.78Zm-2.25-.23h0l-.5,4.54-1.56-.18.46-4.55a.72.72,0,0,1,.87-.55.69.69,0,0,1,.73.74Zm-2.25-.23h0l-.45,4.54-1.66-.18.51-4.59a.81.81,0,0,1,.92-.55.69.69,0,0,1,.68.78Zm-2.2-.28h0l-.5,4.55-1.61-.14.5-4.54a.82.82,0,0,1,.88-.65c.41.09.78.42.73.78Zm21.17-7.76h0l-.51,4.55-1.61-.14.51-4.59a.71.71,0,0,1,.87-.55c.42.05.78.37.74.73Zm-2.25-.23h0l-.46,4.55-1.66-.18.51-4.55a.79.79,0,0,1,.87-.6.77.77,0,0,1,.74.78Zm-2.21-.23h0l-.5,4.55-1.61-.18.51-4.55a.75.75,0,0,1,.87-.6.8.8,0,0,1,.73.78Zm-2.25-.27h0l-.5,4.54-1.61-.13.51-4.55a.72.72,0,0,1,.87-.6c.46.05.78.37.73.74Zm-2.2-.23h0l-.55,4.54-1.56-.18.46-4.54a.82.82,0,0,1,.91-.6.83.83,0,0,1,.74.78Zm-2.25-.23h0l-.51,4.55-1.6-.19.5-4.54a.82.82,0,0,1,1.61.18Zm-2.25-.23h0l-.51,4.5-1.56-.14.46-4.54a.77.77,0,0,1,.92-.6.72.72,0,0,1,.69.78Zm-2.2-.27h0l-.51,4.54L126.9,203l.51-4.55a.67.67,0,0,1,.87-.55c.46,0,.78.37.74.74Zm-2.25-.23h0l-.51,4.54-1.56-.18.46-4.55a.77.77,0,0,1,.87-.59.76.76,0,0,1,.74.78Zm-2.21-.24h0l-.5,4.51-1.66-.14.51-4.55a.77.77,0,0,1,.92-.59.72.72,0,0,1,.73.77Zm21.12-7.75h0l-.46,4.5-1.6-.14.5-4.59c0-.37.41-.6.83-.56s.82.37.73.79Zm-2.2-.28h0l-.51,4.55-1.6-.19.5-4.5a.78.78,0,0,1,.87-.64c.42.09.78.41.74.78Zm-2.25-.27h0l-.46,4.59-1.65-.19.55-4.54a.65.65,0,0,1,.82-.55.69.69,0,0,1,.74.69Zm-2.2-.19h0l-.51,4.55-1.61-.19.51-4.59a.76.76,0,0,1,.87-.55.81.81,0,0,1,.74.78Zm-2.25-.27h0l-.51,4.54-1.61-.18.51-4.5a.78.78,0,0,1,.87-.64c.46.09.78.41.74.78Zm-2.21-.23h0l-.55,4.54-1.56-.18.46-4.55a.77.77,0,0,1,.92-.55.76.76,0,0,1,.73.74Zm-2.25-.23h0l-.5,4.54-1.61-.18.5-4.55a.76.76,0,0,1,.88-.59.72.72,0,0,1,.73.78Zm-2.25-.28h0l-.5,4.55L128,193l.45-4.5a.87.87,0,0,1,.92-.64.77.77,0,0,1,.69.78Zm-2.2-.23h0l-.51,4.55-1.6-.19.5-4.54a.83.83,0,0,1,1.61.18Zm-2.25-.23h0l-.51,4.55-1.56-.19L124,188a.79.79,0,0,1,.87-.6.74.74,0,0,1,.74.78Zm21.16-7.76h0l-.5,4.55-1.61-.18.51-4.6a.82.82,0,0,1,.92-.55.72.72,0,0,1,.68.78Zm-2.25-.27h0l-.45,4.54-1.61-.14L143,180c0-.41.42-.64.83-.64s.83.41.73.78Zm-2.2-.23h0l-.5,4.54-1.61-.18.5-4.54a.71.71,0,0,1,.88-.56.69.69,0,0,1,.73.74Zm-2.25-.23h0l-.46,4.54L138,184l.55-4.55a.7.7,0,0,1,.83-.59c.46,0,.82.36.73.78Zm-2.2-.28h0l-.51,4.55-1.6-.14.5-4.55a.78.78,0,0,1,.87-.64.87.87,0,0,1,.74.78Zm-2.25-.23h0l-.51,4.55-1.6-.18L134,179a.69.69,0,0,1,.87-.55.7.7,0,0,1,.74.73Zm-2.21-.23h0l-.5,4.55-1.61-.18.51-4.55a.75.75,0,0,1,.87-.6.8.8,0,0,1,.73.78Zm-2.25-.27h0l-.5,4.54-1.61-.13.51-4.55a.72.72,0,0,1,.87-.6c.46,0,.78.37.73.74Zm-2.2-.23h0l-.55,4.54-1.56-.18.46-4.54a.77.77,0,0,1,.92-.56.76.76,0,0,1,.73.74Zm18.55,10.65-.74,6.84-24.38-2.66.74-6.84ZM146.46,199l-.78,6.84-24.38-2.66.78-6.84Zm-1.1,9.87-.73,6.85L120.25,213l.73-6.84Zm-1.05,9.83-.79,6.89-24.33-2.67.73-6.88Zm-1.11,9.87L141.64,243c-.37-.09-.73-.18-1.15-.32l1.2-10.61a2.21,2.21,0,0,0-2.11-2.16,2.09,2.09,0,0,0-2.48,1.7L136,241.85l-1.19-.14,1.1-10.19a2.15,2.15,0,0,0-2.06-2.16,2.11,2.11,0,0,0-2.48,1.65l-1.15,10.38a7.81,7.81,0,0,0-1.06,0H129l1.14-10.47a2.15,2.15,0,0,0-2.06-2.16,2.17,2.17,0,0,0-2.53,1.66l-1.19,11.2-1.24.14,1.24-11.48a2.16,2.16,0,0,0-2.07-2.16,2.11,2.11,0,0,0-2.48,1.7l-1.42,12.81c-.46.09-1,.23-1.42.37l1.83-17.08Z"/><path class="cls-2" d="M305.83,252.68l-17.59.18,2.34-2.84h0l.88-1h0l.55-.69h0l.87-1h0l.55-.69h0l.83-1,11.61-14,11.71,13.73-.32.32,7.39-6.89v0c1.47,1.29,2.94,2.57,4.41,3.81,1-1.61,2.76-3.63,5-3.4h0c3.81.14,4.36,6,4.36,6l-2,0,.05,1.15a6.71,6.71,0,0,1,1.6,2.66c.05.05.05.1.09.14l.14.19.05.13c.09.19.14.37.27.6l-8.12.05c2.71,0,5.41-.05,8.12-.05l-.13-.23-.1-.23,0-.14c.09.19.14.37.27.6a12.36,12.36,0,0,1,.46,1.33l4.27.19c.69.18,1.06.13,1.52,2.38l-13.22.1c0,.22-6.25-.1-6.25-.1L311.93,254a7.36,7.36,0,0,0-.09-1.2Zm12.72-5.28h0c.18,0,.36.14.59.23-.23-.09-.41-.18-.59-.23Zm3.07.92a2.19,2.19,0,0,1,.51,0,2.19,2.19,0,0,0-.51,0Zm2.8,4.18a1.86,1.86,0,0,0-.5-.32,1.86,1.86,0,0,1,.5.32Zm13.68-3.22s0-.09-.09-.14h0Z"/><path class="cls-2" d="M331.22,221.37v1.38h-7v7.39h3l-2.11.69v23.46h-4.64V230.87l-2.15-.73h3.07v-7.39H298v7.39h3.08l-2.11.69v23.46H294.3V230.87l-2.06-.73h3v-7.39h-7v-1.38h-1.88v-1h8.91v-4h-2.11V214.8c-2.9-.41-5.88-.92-8.87-1.51v-3.4c-1.1-.18-2.25-.41-3.39-.69v-2.75c-1.29-.23-2.62-.51-3.91-.78v-2.48a199.54,199.54,0,0,0,65.43,0v2.48c-1.28.27-2.57.55-3.9.78v2.75c-1.1.28-2.25.51-3.4.74v3.35c-2.89.64-5.88,1.19-8.86,1.6v1.47h-2.07v4h8.86v1Zm-31.09-5.79v.78H298v4h9.6V216c-2.48,0-5-.18-7.49-.37Zm21.26.78h-2.11v-.73c-2.43.23-5,.32-7.44.37v4.36h9.55Z"/><path class="cls-2" d="M277.36,51.67c-1.28,1.2-.92,1.06-3.9.19-2.62-.83-1.38-1.11-3.72.23-2.11,1.24-5.56,2.48-7.16,3.44.6,1.33,5.74,5.69,7,7.48-.46.23-.83.42-1.33.65-.79.36-.6.36-1.52-.19-2-1.15-8.49-4.82-9.78-5.37-1.7.73-6.2,3-7.76,2.94-.73,0-1.93-.23-1.7-1.15.6-2.25,4.64-3.49,7.26-4.64,1.05-.45.78-.41,1-1.56s2-10.24,2.43-10.69c.18-.14,1.61-.74,1.88-.88a24.7,24.7,0,0,1,.28,2.62l.46,5.1a15.55,15.55,0,0,0,.27,2.57c1.2-.6,2.39-1.1,3.63-1.7,6.15-2.94,5.05-1,6.47-4.27.83-1.84.83-2.94,2.62-2.66-.32,3.67.69,6,3.58,7.89ZM225.11,16.09c1.66.5,1.29.55,3.58-1.56,2-1.84.78-1.56,3.49-1.33,2.39.18,6.06-.14,7.95,0,0,1.43-2.76,7.58-3.13,9.74h1.47c.88,0,.69.09,1.33-.78,1.34-1.93,5.56-8,6.52-9,1.89,0,6.89,0,8.27-.64.64-.37,1.65-1.1,1-1.84-1.51-1.74-5.69-1.15-8.54-1.05-1.14,0-.87,0-1.6-1S239.3.25,238.75,0c-.23,0-1.79,0-2.07,0a18.51,18.51,0,0,0,.83,2.48l1.79,4.82c.32.74.64,1.7.87,2.43-1.33,0-2.66,0-4,0-6.79,0-4.91,1.34-7.67-1.05-1.51-1.33-2-2.3-3.49-1.29,1.84,3.17,1.93,5.7.14,8.68Zm-.73-4.68a.55.55,0,1,1,.13,1.1l-1.1.14a.56.56,0,0,1-.18-1.11ZM126.86,84.87a.58.58,0,0,1-1.06-.46l.28-.6a.57.57,0,1,1,1,.51Zm1.74-3.63a.56.56,0,1,1-1-.5l.51-1c.32-.69,1.33-.14,1,.5Zm2.07-4c-.32.64-1.38.18-1-.5l.55-1a.58.58,0,0,1,1,.55Zm2.2-4a.58.58,0,0,1-1-.55l.6-1a.55.55,0,1,1,1,.55Zm2.3-3.9a.57.57,0,1,1-1-.6l.6-1a.57.57,0,0,1,1,.59Zm2.43-3.86c-.37.6-1.38.05-1-.59l.64-1a.56.56,0,1,1,.92.64Zm2.53-3.72a.58.58,0,0,1-.92-.69l.64-.91a.58.58,0,0,1,.92.69Zm2.66-3.67a.56.56,0,1,1-.87-.69l.69-.92a.56.56,0,0,1,.87.69Zm2.66-3.44a.6.6,0,0,1-.87-.6.64.64,0,0,1,.51-.69l.36-.46c.46-.55,1.38.14.87.74l-.09.13.19,0a.57.57,0,1,1-.42,1.06Zm3.08-3.58a.57.57,0,1,1-.83-.79l.74-.82a.55.55,0,1,1,.82.73Zm3.07-3.36a.57.57,0,1,1-.82-.78l.78-.82c.5-.55,1.33.23.83.78Zm3.17-3.21c-.59.51-1.33-.37-.78-.83l.78-.78a.59.59,0,0,1,.83.83Zm3.31-3.12a.57.57,0,0,1-.78-.83l.87-.78a.57.57,0,0,1,.74.87Zm3.4-2.94a.56.56,0,0,1-.69-.87l.87-.74a.56.56,0,1,1,.69.88Zm3.58-2.85c-.65.46-1.29-.46-.69-.87l.87-.69c.64-.46,1.29.46.69.87Zm3.62-2.66A.56.56,0,0,1,168,32a9.54,9.54,0,0,1,1-.64.56.56,0,0,1,.64.92c-.32.23-.64.41-1,.64Zm3.77-2.53c-.64.42-1.19-.59-.6-1l1-.6a.57.57,0,0,1,.59,1Zm3.86-2.34a.58.58,0,0,1-.55-1l1-.55a.58.58,0,0,1,.55,1Zm4-2.2a.58.58,0,1,1-.55-1l1-.55c.69-.32,1.19.73.55,1.05Zm4-2a.59.59,0,0,1-.5-1.06c.36-.13.69-.32,1-.46a.55.55,0,1,1,.46,1c-.32.19-.69.33-1,.51ZM188.47,22a.58.58,0,0,1-.46-1.06l1.06-.46a.57.57,0,0,1,.41,1.06Zm4.18-1.7a.57.57,0,0,1-.41-1.06l1.1-.41c.64-.28,1.1.78.37,1.06Zm4.27-1.56c-.69.23-1.1-.83-.37-1.06.37-.14.74-.27,1.11-.37.64-.27,1.05.78.32,1.06-.37.14-.69.23-1.06.37Zm4.32-1.38a.57.57,0,0,1-.32-1.1l1.1-.32a.57.57,0,1,1,.27,1.1Zm4.36-1.24a.57.57,0,0,1-.28-1.1l1.11-.28a.57.57,0,0,1,.27,1.1ZM210,15a.59.59,0,0,1-.28-1.14l1.15-.23a.56.56,0,0,1,.23,1.1Zm4.4-1a.56.56,0,1,1-.18-1.1l1.1-.19a.57.57,0,1,1,.23,1.11Zm4.5-.78a.56.56,0,1,1-.18-1.1l1.1-.19a.58.58,0,0,1,.19,1.15ZM66,57.73c-1.28,1.2-.91,1.06-3.9.14-2.62-.78-1.38-1.1-3.72.28-2.11,1.19-5.55,2.48-7.16,3.44.6,1.33,5.74,5.69,7,7.48-.46.23-.83.37-1.33.6-.78.41-.6.41-1.52-.14-2-1.15-8.49-4.86-9.78-5.37-1.7.74-6.2,3-7.76,2.94-.73,0-1.93-.28-1.7-1.19.6-2.25,4.64-3.49,7.26-4.64,1-.46.78-.37,1-1.52s2-10.24,2.43-10.69a15.72,15.72,0,0,1,1.88-.88A23.77,23.77,0,0,1,49,50.75l.46,5.15a15.93,15.93,0,0,0,.27,2.52c1.2-.55,2.39-1.1,3.63-1.65,6.15-2.94,5-1,6.47-4.27.83-1.84.78-2.94,2.62-2.66-.32,3.67.69,6,3.58,7.89Zm-1.33-4.54a.58.58,0,0,0,.37,1.1l1-.37a.58.58,0,0,0-.36-1.1ZM184.3,77.89c.59.5,1.24-.41.68-.87l-.45-.37a.57.57,0,1,0-.74.87Zm-3.17-2.53a.57.57,0,0,0,.73-.87l-.92-.73a.57.57,0,0,0-.68.92Zm-3.58-2.75c.55.46,1.28-.41.68-.92l-.91-.69c-.6-.41-1.33.46-.69.92ZM173.87,70a.56.56,0,0,0,.65-.92l-1-.65a.56.56,0,0,0-.64.92Zm-3.76-2.53a.58.58,0,0,0,.64-1l-1-.6a.56.56,0,1,0-.65.92ZM166.3,65a.56.56,0,1,0,.55-1l-1-.59a.56.56,0,0,0-.59,1Zm-4-2.3a.59.59,0,0,0,.6-1l-1-.55a.58.58,0,0,0-.56,1Zm-3.95-2.16a.57.57,0,0,0,.51-1l-1-.55a.57.57,0,1,0-.51,1Zm-4.09-2a.58.58,0,0,0,.51-1l-1-.46a.57.57,0,0,0-.51,1Zm-4.08-1.88a.57.57,0,1,0,.41-1.06l-1-.45a.57.57,0,0,0-.42,1.05Zm-8.45-3.3a.56.56,0,0,0,.37-1.06l-1.1-.37a.56.56,0,0,0-.37,1.06ZM137.46,52c.69.23,1-.87.33-1.1l-1.11-.32a.57.57,0,0,0-.32,1.1Zm-4.36-1.2a.57.57,0,0,0,.28-1.1l-1.1-.27a.57.57,0,1,0-.28,1.1Zm-4.41-1a.56.56,0,0,0,.23-1.1l-1.14-.23a.56.56,0,1,0-.23,1.1Zm-4.45-.83a.58.58,0,0,0,.18-1.15c-.36,0-.78-.13-1.14-.18a.58.58,0,0,0-.19,1.15,9.15,9.15,0,0,1,1.15.18Zm-4.5-.69a.55.55,0,1,0,.14-1.1l-1.1-.14a.56.56,0,1,0-.14,1.11Zm-4.5-.46a.57.57,0,1,0,.09-1.14l-1.14-.1a.58.58,0,0,0,0,1.15Zm-4.5-.32a.55.55,0,1,0,.05-1.1l-1.15,0a.55.55,0,1,0,0,1.1Zm-4.54-.09a.58.58,0,0,0,0-1.15h-1.15c-.69,0-.78,1.15,0,1.15Zm-4.55.09a.57.57,0,1,0,0-1.14l-1.11,0a.58.58,0,0,0,0,1.15Zm-4.5.23c.74,0,.64-1.19-.09-1.15l-1.15.1A.57.57,0,0,0,96,47.72Zm-4.5.42a.56.56,0,0,0-.14-1.11l-1.14.14a.55.55,0,1,0,.13,1.1l1.15-.13Zm-4.5.59a.56.56,0,1,0-.18-1.1l-1.15.14c-.73.18-.5,1.28.18,1.15Zm-4.5.78a.58.58,0,0,0-.18-1.14l-1.15.22a.57.57,0,0,0,.23,1.11Zm-4.4.87c.68-.09.5-1.23-.28-1.1l-1.1.28c-.78.18-.41,1.28.27,1.1ZM74.84,51.4a.58.58,0,0,0-.32-1.11l-1.11.28c-.73.18-.41,1.29.33,1.1Zm-4.41,1.19a.57.57,0,1,0-.32-1.1l-1.06.32a.57.57,0,0,0,.33,1.1ZM276,47.13a.58.58,0,0,0,.37,1.1l1.05-.37a.56.56,0,1,0-.36-1Zm119.6,24.74c.6.46,1.29-.45.69-.87l-.46-.41a.57.57,0,0,0-.73.87Zm-3.16-2.52c.59.46,1.28-.46.73-.92l-.92-.69a.56.56,0,1,0-.69.87Zm-3.58-2.8a.55.55,0,0,0,.68-.87l-.91-.69a.58.58,0,1,0-.69.92Zm-3.68-2.62a.58.58,0,0,0,.64-1l-.91-.65a.58.58,0,1,0-.65,1Zm-3.76-2.57a.58.58,0,0,0,.64-1l-1-.6a.58.58,0,0,0-.65,1Zm-3.81-2.43c.59.41,1.24-.51.59-1l-1-.59c-.55-.37-1.24.55-.55,1Zm-3.91-2.3a.56.56,0,0,0,.56-1l-1-.6c-.68-.32-1.19.69-.55,1Zm-4-2.16a.56.56,0,1,0,.5-1l-1-.5c-.69-.37-1.14.69-.5,1Zm-4.09-2a.57.57,0,1,0,.51-1l-1-.5c-.65-.32-1.2.69-.51,1Zm-4.08-1.88a.57.57,0,1,0,.41-1.06l-1-.45c-.74-.28-1.15.82-.46,1Zm-4.23-1.7a.59.59,0,0,0,.42-1.1l-1.06-.37a.57.57,0,0,0-.41,1.06Zm-4.22-1.56a.58.58,0,0,0,.37-1.1l-1.11-.37a.58.58,0,0,0-.36,1.1Zm-4.32-1.42a.55.55,0,1,0,.32-1.06l-1.1-.32a.55.55,0,1,0-.32,1.06Zm-4.36-1.2a.57.57,0,0,0,.28-1.1l-1.1-.27a.57.57,0,1,0-.28,1.1Zm-4.41-1a.58.58,0,0,0,.23-1.14l-1.15-.23a.56.56,0,1,0-.18,1.1Zm-4.45-.87a.56.56,0,1,0,.18-1.1c-.36-.09-.73-.14-1.15-.23-.64-.09-1,1-.18,1.15.42,0,.78.14,1.15.18Zm-4.5-.69a.55.55,0,1,0,.14-1.1l-1.1-.14A.56.56,0,1,0,330,42Zm-4.5-.46a.57.57,0,0,0,.09-1.14l-1.15-.1a.58.58,0,0,0,0,1.15Zm-4.5-.27a.58.58,0,0,0,.05-1.15L321,40.19a.58.58,0,0,0-.05,1.15Zm-4.55-.14a.58.58,0,0,0,0-1.15h-1.14c-.69,0-.78,1.15,0,1.15Zm-4.54.09a.58.58,0,1,0-.05-1.15l-1.1.05a.58.58,0,0,0,.05,1.15Zm-4.5.23a.55.55,0,1,0-.09-1.1l-1.15.09a.55.55,0,0,0,.09,1.1ZM304,42c.69-.09.64-1.24-.14-1.15l-1.14.14a.55.55,0,0,0,.13,1.1A10.32,10.32,0,0,1,304,42Zm-4.5.55a.56.56,0,1,0-.18-1.1l-1.15.18a.56.56,0,0,0,.18,1.11Zm-4.5.78a.56.56,0,1,0-.18-1.1l-1.15.18a.59.59,0,0,0,.23,1.15Zm-4.41.92a.57.57,0,0,0-.27-1.1l-1.1.23a.57.57,0,1,0,.27,1.1Zm-4.4,1.06a.57.57,0,0,0-.28-1.11l-1.15.28a.57.57,0,0,0,.33,1.1Zm-4.36,1.19a.57.57,0,0,0-.33-1.1l-1.1.32a.57.57,0,0,0,.32,1.1Z"/></g></g></g></svg>