<?xml version="1.0" encoding="utf-8"?>
<!-- Generator: Adobe Illustrator 22.0.1, SVG Export Plug-In . SVG Version: 6.00 Build 0)  -->
<svg version="1.1" id="Layer_1" xmlns="http://www.w3.org/2000/svg" xmlns:xlink="http://www.w3.org/1999/xlink" x="0px" y="0px"
	 viewBox="0 0 129 129" style="enable-background:new 0 0 129 129;" xml:space="preserve">
<style type="text/css">
	.st0{fill:#00BAFB;}
</style>
<g>
	<g>
		<path class="st0" d="M64.5,122.3c32,0,57.9-26,57.9-57.9c0-32-26-57.9-57.9-57.9S6.6,32.4,6.6,64.4
			C6.6,96.3,32.5,122.3,64.5,122.3z M64.5,14.6c27.5,0,49.8,22.3,49.8,49.8S92,114.2,64.5,114.2S14.7,91.8,14.7,64.4
			C14.7,36.9,37,14.6,64.5,14.6z"/>
		<path class="st0" d="M61.8,71.2h19.3c2.3,0,4.1-1.8,4.1-4.1c0-2.3-1.8-4.1-4.1-4.1H65.9V39.2c0-2.3-1.8-4.1-4.1-4.1
			s-4.1,1.8-4.1,4.1v27.9C57.7,69.4,59.5,71.2,61.8,71.2z"/>
	</g>
</g>
</svg>
