<svg xmlns="http://www.w3.org/2000/svg" viewBox="0 0 500 212.29"><defs><style>.cls-1{fill:#fff;}.cls-2{fill:#414042;}.cls-3{fill:#f1f2f2;}.cls-4{fill:#d1d3d4;}.cls-5{fill:#ecedee;}.cls-6{fill:#bcbec0;}.cls-7{fill:#e6e7e8;}.cls-8{fill:#58595b;}.cls-9{fill:none;}.cls-10{fill:#6d6e71;}.cls-11{fill:#808285;opacity:0.45;}.cls-12{fill:#a7a9ac;}.cls-13{fill:#231f20;}.cls-14{fill:#939598;}</style></defs><title>flight_to_sky</title><g id="Layer_2" data-name="Layer 2"><g id="Layer_1-2" data-name="Layer 1"><path id="_Path_" data-name="&lt;Path&gt;" class="cls-1" d="M446.68,68.62c-3.93-1.84-11.23-4-15.74-3.26L390.37,72,304.23,85.7l.84,5.25h.09l56.26,2.9a92.93,92.93,0,0,0,10.83-1.29l22-3.5,44.24-7.17c1.94-.23,5.64-1.94,7.67-2.93a24.16,24.16,0,0,0,3.46-2.07C456.89,71.68,450.19,70.28,446.68,68.62Z"/><path class="cls-2" d="M337,92.6l24.44,1.26a92.93,92.93,0,0,0,10.83-1.29l22-3.5,44.24-7.17c1.94-.23,5.64-1.94,7.67-2.93a24.16,24.16,0,0,0,3.46-2.07,10.24,10.24,0,0,0,2.77-2.66Z"/><path id="_Path_2" data-name="&lt;Path&gt;" class="cls-3" d="M351.49,93.35l9.93.51a92.93,92.93,0,0,0,10.83-1.29l22-3.5,44.24-7.17c1.94-.23,5.64-1.94,7.67-2.93.6-.3,1.2-.62,1.77-1Z"/><path id="_Path_3" data-name="&lt;Path&gt;" class="cls-2" d="M301.83,86.09l.34,2.17a3.22,3.22,0,0,0,2.9,2.69l-.84-5.25Z"/><path id="_Path_4" data-name="&lt;Path&gt;" class="cls-2" d="M346.8,78.93c-.59-.36-4.47-.24-7.95-3-2.27-1.83-14.58-12-20.25-16.74a8.28,8.28,0,0,0-6.6-1.78l-7.15,1.13,11,25.34Z"/><polygon id="_Path_5" data-name="&lt;Path&gt;" class="cls-3" points="304.85 58.51 315.9 83.85 317.92 83.53 306.87 58.19 304.85 58.51"/><polygon id="_Path_6" data-name="&lt;Path&gt;" class="cls-2" points="316.94 88.68 339.97 85.02 305.28 83.81 300.99 84.5 316.94 88.68"/><g id="_Group_" data-name="&lt;Group&gt;"><rect id="_Rectangle_" data-name="&lt;Rectangle&gt;" class="cls-1" x="347.43" y="81.04" width="4.89" height="8.27" rx="2.18" ry="2.18" transform="translate(-9.03 56) rotate(-9.04)"/><path id="_Path_7" data-name="&lt;Path&gt;" class="cls-4" d="M348.56,85.6a.28.28,0,0,0-.33-.23.27.27,0,0,0-.23.32.28.28,0,1,0,.56-.09Z"/></g><g id="_Group_2" data-name="&lt;Group&gt;"><rect id="_Rectangle_2" data-name="&lt;Rectangle&gt;" class="cls-1" x="426.37" y="68.48" width="4.89" height="8.27" rx="2.18" ry="2.18" transform="translate(-6.08 68.25) rotate(-9.04)"/><path id="_Path_8" data-name="&lt;Path&gt;" class="cls-4" d="M427.5,73.05a.28.28,0,0,0-.32-.24.28.28,0,1,0,.09.56A.27.27,0,0,0,427.5,73.05Z"/></g><g id="_Group_3" data-name="&lt;Group&gt;"><g id="_Group_4" data-name="&lt;Group&gt;"><rect id="_Rectangle_3" data-name="&lt;Rectangle&gt;" class="cls-5" x="356.16" y="82.28" width="2.11" height="2.36" rx="1.06" ry="1.06" transform="translate(-8.67 57.15) rotate(-9.04)"/><rect id="_Path_9" data-name="&lt;Path&gt;" class="cls-6" x="359.98" y="81.7" width="2.11" height="2.36" rx="0.49" ry="0.49" transform="translate(-8.54 57.72) rotate(-9.04)"/><rect id="_Path_10" data-name="&lt;Path&gt;" class="cls-6" x="363.79" y="81.12" width="2.11" height="2.36" rx="0.49" ry="0.49" transform="translate(-8.4 58.32) rotate(-9.04)"/><rect id="_Path_11" data-name="&lt;Path&gt;" class="cls-5" x="367.61" y="80.53" width="2.11" height="2.36" rx="0.49" ry="0.49" transform="translate(-8.26 58.92) rotate(-9.04)"/><rect id="_Path_12" data-name="&lt;Path&gt;" class="cls-5" x="371.42" y="79.95" width="2.11" height="2.36" rx="0.49" ry="0.49" transform="translate(-8.12 59.5) rotate(-9.04)"/><rect id="_Path_13" data-name="&lt;Path&gt;" class="cls-5" x="375.24" y="79.37" width="2.11" height="2.36" rx="0.49" ry="0.49" transform="translate(-7.98 60.09) rotate(-9.04)"/><rect id="_Path_14" data-name="&lt;Path&gt;" class="cls-5" x="379.05" y="78.79" width="2.11" height="2.36" rx="0.49" ry="0.49" transform="translate(-7.84 60.7) rotate(-9.04)"/><rect id="_Path_15" data-name="&lt;Path&gt;" class="cls-5" x="382.87" y="78.21" width="2.11" height="2.36" rx="0.49" ry="0.49" transform="translate(-7.7 61.28) rotate(-9.04)"/><rect id="_Path_16" data-name="&lt;Path&gt;" class="cls-5" x="386.68" y="77.63" width="2.11" height="2.36" rx="0.49" ry="0.49" transform="translate(-7.57 61.88) rotate(-9.04)"/><rect id="_Path_17" data-name="&lt;Path&gt;" class="cls-5" x="390.5" y="77.05" width="2.11" height="2.36" rx="0.49" ry="0.49" transform="translate(-7.43 62.46) rotate(-9.04)"/><rect id="_Path_18" data-name="&lt;Path&gt;" class="cls-5" x="394.31" y="76.47" width="2.11" height="2.36" rx="0.49" ry="0.49" transform="translate(-7.29 63.05) rotate(-9.04)"/><rect id="_Path_19" data-name="&lt;Path&gt;" class="cls-5" x="398.13" y="75.89" width="2.11" height="2.36" rx="0.49" ry="0.49" transform="translate(-7.15 63.66) rotate(-9.04)"/><rect id="_Path_20" data-name="&lt;Path&gt;" class="cls-5" x="401.94" y="75.31" width="2.11" height="2.36" rx="0.49" ry="0.49" transform="translate(-7.01 64.24) rotate(-9.04)"/><rect id="_Path_21" data-name="&lt;Path&gt;" class="cls-5" x="405.76" y="74.72" width="2.11" height="2.36" rx="0.49" ry="0.49" transform="translate(-6.87 64.83) rotate(-9.04)"/><rect id="_Path_22" data-name="&lt;Path&gt;" class="cls-5" x="409.57" y="74.14" width="2.11" height="2.36" rx="0.49" ry="0.49" transform="translate(-6.73 65.43) rotate(-9.04)"/><rect id="_Path_23" data-name="&lt;Path&gt;" class="cls-5" x="413.39" y="73.56" width="2.11" height="2.36" rx="0.49" ry="0.49" transform="translate(-6.6 66.01) rotate(-9.04)"/><rect id="_Path_24" data-name="&lt;Path&gt;" class="cls-5" x="417.2" y="72.98" width="2.11" height="2.36" rx="0.49" ry="0.49" transform="translate(-6.46 66.6) rotate(-9.04)"/><rect id="_Rectangle_4" data-name="&lt;Rectangle&gt;" class="cls-5" x="421.02" y="72.4" width="2.11" height="2.36" rx="1.06" ry="1.06" transform="translate(-6.32 67.21) rotate(-9.04)"/></g><path id="_Path_25" data-name="&lt;Path&gt;" class="cls-7" d="M357.59,82.2l-1.11.18a.49.49,0,0,0-.41.57l.11.73,2.09-.33-.12-.74A.5.5,0,0,0,357.59,82.2Z"/><path id="_Path_26" data-name="&lt;Path&gt;" class="cls-4" d="M361.4,81.62l-1.11.18a.5.5,0,0,0-.41.57l.11.7,2.09-.33L362,82A.5.5,0,0,0,361.4,81.62Z"/><path id="_Path_27" data-name="&lt;Path&gt;" class="cls-7" d="M365.22,81l-1.11.18a.48.48,0,0,0-.41.56l.1.69,2.09-.34-.11-.68A.49.49,0,0,0,365.22,81Z"/><path id="_Path_28" data-name="&lt;Path&gt;" class="cls-7" d="M369,80.46l-1.11.18a.49.49,0,0,0-.41.56l.11.66,2.08-.33-.1-.66A.5.5,0,0,0,369,80.46Z"/><path id="_Path_29" data-name="&lt;Path&gt;" class="cls-7" d="M372.85,79.88l-1.11.18a.48.48,0,0,0-.41.56l.1.63,2.09-.33-.11-.63A.49.49,0,0,0,372.85,79.88Z"/><path id="_Path_30" data-name="&lt;Path&gt;" class="cls-7" d="M376.66,79.3l-1.11.18a.49.49,0,0,0-.41.56l.1.61,2.09-.34-.1-.6A.5.5,0,0,0,376.66,79.3Z"/><path id="_Path_31" data-name="&lt;Path&gt;" class="cls-7" d="M380.48,78.72l-1.11.17a.5.5,0,0,0-.41.57l.09.58,2.09-.33-.09-.58A.5.5,0,0,0,380.48,78.72Z"/><path id="_Path_32" data-name="&lt;Path&gt;" class="cls-7" d="M384.29,78.14l-1.11.17a.5.5,0,0,0-.41.57l.09.55L385,79.1l-.09-.55A.49.49,0,0,0,384.29,78.14Z"/><path id="_Path_33" data-name="&lt;Path&gt;" class="cls-7" d="M388.11,77.56l-1.11.17a.5.5,0,0,0-.41.57l.08.53,2.09-.33-.08-.53A.5.5,0,0,0,388.11,77.56Z"/><path id="_Path_34" data-name="&lt;Path&gt;" class="cls-7" d="M391.92,77l-1.11.18a.5.5,0,0,0-.41.57l.08.5,2.09-.33-.08-.5A.51.51,0,0,0,391.92,77Z"/><path id="_Path_35" data-name="&lt;Path&gt;" class="cls-7" d="M395.74,76.39l-1.11.18a.49.49,0,0,0-.41.57l.07.48,2.09-.34-.07-.48A.5.5,0,0,0,395.74,76.39Z"/><path id="_Path_36" data-name="&lt;Path&gt;" class="cls-7" d="M399.55,75.81l-1.11.18a.5.5,0,0,0-.41.57l.07.45,2.09-.33-.07-.46A.5.5,0,0,0,399.55,75.81Z"/><path id="_Path_37" data-name="&lt;Path&gt;" class="cls-7" d="M403.37,75.23l-1.11.18a.48.48,0,0,0-.41.56l.07.43,2.08-.33-.06-.43A.5.5,0,0,0,403.37,75.23Z"/><path id="_Path_38" data-name="&lt;Path&gt;" class="cls-7" d="M407.18,74.65l-1.11.18a.49.49,0,0,0-.41.56l.07.41,2.09-.33-.07-.41A.5.5,0,0,0,407.18,74.65Z"/><path id="_Path_39" data-name="&lt;Path&gt;" class="cls-7" d="M411,74.07l-1.11.18a.48.48,0,0,0-.41.56l.06.38,2.09-.33-.06-.38A.5.5,0,0,0,411,74.07Z"/><path id="_Path_40" data-name="&lt;Path&gt;" class="cls-7" d="M414.82,73.49l-1.12.17a.5.5,0,0,0-.41.57l.06.36,2.09-.34-.06-.35A.49.49,0,0,0,414.82,73.49Z"/><path id="_Path_41" data-name="&lt;Path&gt;" class="cls-7" d="M418.63,72.91l-1.11.17a.5.5,0,0,0-.41.57l.05.33,2.09-.33-.05-.33A.5.5,0,0,0,418.63,72.91Z"/><path id="_Path_42" data-name="&lt;Path&gt;" class="cls-7" d="M423,72.74a.49.49,0,0,0-.56-.41l-1.12.17a.5.5,0,0,0-.41.57l.05.3,2.09-.33Z"/></g><path id="_Path_43" data-name="&lt;Path&gt;" class="cls-5" d="M443.78,69.14v.08l3.07-.49-.06,0-.12-.06c-.83-.38-1.8-.78-2.86-1.16l-1.52.24Z"/><path id="_Path_44" data-name="&lt;Path&gt;" class="cls-5" d="M439.38,68.17l1.81,2.53,2.2-1.32v0l-1.6-1.57Z"/><path id="_Path_45" data-name="&lt;Path&gt;" class="cls-5" d="M437,68.54l.29,1.82,3.41.41-1.81-2.53Z"/><path id="_Compound_Path_" data-name="&lt;Compound Path&gt;" class="cls-3" d="M429.57,68l-2.91.46a1.29,1.29,0,0,0-1.07,1.47l1,6.26a1.3,1.3,0,0,0,1.48,1.07l2.91-.47A1.29,1.29,0,0,0,432,75.31l-1-6.26A1.29,1.29,0,0,0,429.57,68Zm2.16,7.37a1,1,0,0,1-.81,1.11l-2.91.46a1,1,0,0,1-1.11-.8l-1-6.26a1,1,0,0,1,.81-1.1l2.91-.47a1,1,0,0,1,1.11.81Z"/><polygon id="_Path_46" data-name="&lt;Path&gt;" class="cls-3" points="300.99 84.5 300.95 84.23 305.18 83.56 339.92 84.75 339.97 85.02 305.28 83.81 300.99 84.5"/><polygon id="_Path_47" data-name="&lt;Path&gt;" class="cls-3" points="316.94 88.68 314.91 91.48 334.56 92.48 339.97 85.02 316.94 88.68"/><g id="_Group_5" data-name="&lt;Group&gt;"><path id="_Path_48" data-name="&lt;Path&gt;" class="cls-3" d="M362.66,82.27l.47-.22,36.11.29,8.6-1.37s3.25-.21,3.61.49l-22.87,3.63-25.26-1.88Z"/><g id="_Group_6" data-name="&lt;Group&gt;"><polygon id="_Path_49" data-name="&lt;Path&gt;" class="cls-8" points="362.65 82.25 357.2 78.33 355.16 78.65 360.25 84.11 360.26 84.11 362.66 82.27 362.65 82.25"/><path id="_Path_50" data-name="&lt;Path&gt;" class="cls-3" d="M407.52,81.22l-8.32,1.32-36.53-.27h0l-2.4,1.84,26.15,2.2,1.19,3.78,20.49-3.25-.58-3.65s3.06-.57,3.94-1.73A9.82,9.82,0,0,0,407.52,81.22Z"/></g></g><g id="_Group_7" data-name="&lt;Group&gt;"><path id="_Rectangle_5" data-name="&lt;Rectangle&gt;" class="cls-5" d="M404.65,82.79h0a0,0,0,0,1,0,0v8.07a0,0,0,0,1,0,0h0a1.8,1.8,0,0,1-1.8-1.8V84.6A1.8,1.8,0,0,1,404.65,82.79Z" transform="translate(816.13 109.16) rotate(170.96)"/><rect id="_Rectangle_6" data-name="&lt;Rectangle&gt;" class="cls-1" x="393.25" y="83.69" width="9.67" height="8.07" transform="translate(805 111.84) rotate(170.96)"/><polygon id="_Path_51" data-name="&lt;Path&gt;" class="cls-1" points="389.47 87.3 391.72 85.83 392.62 91.5 390.03 90.81 389.47 87.3"/><polygon id="_Path_52" data-name="&lt;Path&gt;" class="cls-5" points="392.77 85.14 393.84 91.83 392.62 91.5 391.72 85.83 392.77 85.14"/></g><path id="_Compound_Path_2" data-name="&lt;Compound Path&gt;" class="cls-3" d="M352.78,87.92A1,1,0,0,1,352,89l-2.92.47a1,1,0,0,1-1.11-.81l-1-6.25a1,1,0,0,1,.8-1.11l2.92-.46a1,1,0,0,1,1.11.8Zm-2.15-7.38-2.92.46a1.3,1.3,0,0,0-1.07,1.48l1,6.25a1.29,1.29,0,0,0,1.47,1.07l2.92-.46a1.29,1.29,0,0,0,1.07-1.47l-1-6.26A1.29,1.29,0,0,0,350.63,80.54Z"/><polygon class="cls-1" points="152.82 89.2 139.05 89.2 99.95 89.2 86.18 89.2 82.49 96.46 86.18 104.5 99.95 104.5 139.05 104.5 152.82 104.5 156.51 97.25 152.82 89.2"/><rect class="cls-9" width="500" height="212.29"/><path class="cls-10" d="M500,173.64v38.65H304.19l3.11-5.7a133.43,133.43,0,0,1,25.09-32.94A121.09,121.09,0,0,1,500,173.64Z"/><path class="cls-1" d="M500,84.59v15.86H458.53a8.61,8.61,0,0,1,6.83-4.38,9.35,9.35,0,0,1,11.72-8.51,13.58,13.58,0,0,1,22.92-3Z"/><path class="cls-1" d="M276.84,126.57A7,7,0,0,0,270,121a7.29,7.29,0,0,0-1.88.25,10.32,10.32,0,0,0-8.91-6.41,11.65,11.65,0,0,0-20.89.69,8.11,8.11,0,0,0-2.05-.27,8,8,0,0,0-8,7.56,7.41,7.41,0,0,0-5.85,3.76Z"/><path class="cls-1" d="M366.09,44.52a6.07,6.07,0,0,0-5.94-4.81,6.15,6.15,0,0,0-1.62.22,8.86,8.86,0,0,0-7.67-5.52,10,10,0,0,0-18,.59,6.79,6.79,0,0,0-1.76-.23,6.9,6.9,0,0,0-6.89,6.51,6.39,6.39,0,0,0-5,3.24Z"/><polygon class="cls-11" points="153.34 177.99 153.34 212.29 0 212.29 0 169.93 8.9 169.93 8.9 155.66 33.02 155.66 33.02 165.91 51.95 170.68 51.95 160.79 71.3 160.79 71.3 167.71 81.5 167.71 81.5 177.66 88.69 177.66 88.69 166.88 101.68 163.13 101.68 177.66 104.91 177.66 104.91 184.91 118.04 184.91 118.04 166.88 137.26 166.88 137.26 175.05 153.34 177.99"/><path class="cls-12" d="M396.19,212.29H127.4C208.48,142.34,315.12,142.34,396.19,212.29Z"/><polygon class="cls-2" points="294.96 150.39 294.07 149.39 298.7 149.39 293.89 143.98 292.1 141.97 295.8 141.97 292.44 138.19 289.08 134.41 285.71 138.19 282.36 141.97 286.05 141.97 284.26 143.98 279.45 149.39 284.08 149.39 283.19 150.39 277.31 157.01 289.08 157.01 300.85 157.01 294.96 150.39"/><rect class="cls-13" x="286.48" y="157.01" width="5.2" height="7.24"/><polygon class="cls-2" points="445.26 132.08 444.45 131.17 448.66 131.17 444.28 126.25 442.66 124.42 446.02 124.42 442.96 120.98 439.9 117.53 436.84 120.98 433.79 124.42 437.15 124.42 435.52 126.25 431.14 131.17 435.35 131.17 434.55 132.08 429.19 138.11 439.9 138.11 450.62 138.11 445.26 132.08"/><rect class="cls-13" x="437.54" y="138.11" width="4.73" height="6.59"/><polygon class="cls-2" points="206.19 163.44 205.43 162.59 209.4 162.59 205.27 157.94 203.74 156.22 206.91 156.22 204.03 152.97 201.14 149.73 198.26 152.97 195.37 156.22 198.54 156.22 197.01 157.94 192.88 162.59 196.85 162.59 196.09 163.44 191.04 169.12 201.14 169.12 211.24 169.12 206.19 163.44"/><rect class="cls-13" x="198.91" y="169.12" width="4.46" height="6.21"/><polygon class="cls-2" points="397.29 133.17 396.55 132.32 400.46 132.32 396.38 127.74 394.88 126.04 398 126.04 395.16 122.84 392.31 119.64 389.47 122.84 386.63 126.04 389.75 126.04 388.24 127.74 384.17 132.32 388.08 132.32 387.33 133.17 382.35 138.77 392.31 138.77 402.27 138.77 397.29 133.17"/><rect class="cls-13" x="390.11" y="138.77" width="4.4" height="6.13"/><polygon class="cls-10" points="432.17 180.63 431.08 179.41 436.77 179.41 430.85 172.74 428.65 170.27 433.2 170.27 429.06 165.62 424.93 160.96 420.79 165.62 416.65 170.27 421.2 170.27 419 172.74 413.08 179.41 418.77 179.41 417.68 180.63 410.44 188.78 424.93 188.78 439.42 188.78 432.17 180.63"/><path class="cls-14" d="M324.1,199.46a16.49,16.49,0,0,0-32.77,0Z"/><path class="cls-2" d="M305.47,199.46a11.31,11.31,0,0,0-22.48,0Z"/><path class="cls-14" d="M480.43,201.69a14.11,14.11,0,0,0-28.05,0Z"/><path class="cls-2" d="M464.49,201.69a9.68,9.68,0,0,0-19.25,0Z"/><path class="cls-2" d="M414.53,204.35a8.73,8.73,0,0,0-17.36,0Z"/><path class="cls-2" d="M231,182.44a6.67,6.67,0,0,0-13.25,0Z"/><path class="cls-14" d="M263.75,202.71a8.31,8.31,0,0,0-16.51,0Z"/><path class="cls-14" d="M201.38,206.06a10.93,10.93,0,0,0-21.72,0Z"/><rect class="cls-13" x="247.15" y="165.29" width="3.17" height="16.88"/><circle class="cls-14" cx="248.73" cy="162.09" r="11.25"/><rect class="cls-13" x="358.38" y="149.71" width="2.49" height="13.26"/><circle class="cls-14" cx="359.62" cy="147.2" r="8.84"/><rect class="cls-13" x="152.62" y="189.83" width="2.6" height="9.51"/><path class="cls-14" d="M160.29,186.27c0-3.5-2.84-20.34-6.34-20.34s-6.34,16.84-6.34,20.34a6.34,6.34,0,0,0,12.68,0Z"/><rect class="cls-13" x="327.92" y="165.83" width="2.67" height="9.76"/><path class="cls-14" d="M335.79,162.17c0-3.6-2.91-20.88-6.51-20.88s-6.5,17.28-6.5,20.88a6.51,6.51,0,0,0,13,0Z"/><rect class="cls-13" x="481.29" y="169.47" width="2.96" height="10.81"/><path class="cls-14" d="M490,165.42c0-4-3.23-23.13-7.21-23.13s-7.21,19.15-7.21,23.13a7.21,7.21,0,1,0,14.42,0Z"/><path class="cls-2" d="M212.64,206.06a10.28,10.28,0,0,0-20.43,0Z"/><path class="cls-2" d="M397.26,178.88a13,13,0,0,0-25.91,0Z"/><path class="cls-14" d="M402.88,178.88a9.1,9.1,0,0,0-18.08,0Z"/><path class="cls-14" d="M449.5,176.48a10.32,10.32,0,0,0-20.52,0Z"/><path class="cls-1" d="M169.62,149.93a4.91,4.91,0,0,0-2.94-3.84,4.59,4.59,0,0,0-6.81-2.37,7.14,7.14,0,0,0-4.29-1.66,8.28,8.28,0,0,0-15.54.13,6.3,6.3,0,0,0-.75-.05A6.41,6.41,0,0,0,134,145h-.22a5.17,5.17,0,0,0-5.16,5Z"/></g></g></svg>