<?xml version="1.0" encoding="utf-8"?>
<!-- Generator: Adobe Illustrator 21.1.0, SVG Export Plug-In . SVG Version: 6.00 Build 0)  -->
<svg version="1.1" id="Layer_1" xmlns="http://www.w3.org/2000/svg" xmlns:xlink="http://www.w3.org/1999/xlink" x="0px" y="0px"
	 viewBox="0 0 492.8 492.8" style="enable-background:new 0 0 492.8 492.8;" xml:space="preserve">
<style type="text/css">
	.st0{fill:#3EA69B;}
	.st1{fill:#44C4A1;}
	.st2{fill:#44B290;}
	.st3{fill:#FFF6E1;}
	.st4{fill:#FFEEBD;}
	.st5{fill:#FFC114;}
	.st6{fill:#FF8A15;}
	.st7{fill:#D18307;}
	.st8{fill:#F2B233;}
	.st9{fill:#DD981D;}
	.st10{fill:#F9DB7A;}
</style>
<rect x="240.8" y="1.6" class="st0" width="252" height="489.6"/>
<rect x="276.8" y="38.4" class="st1" width="180" height="416"/>
<polyline class="st2" points="276.8,38.4 456.8,38.4 456.8,454.4 "/>
<circle class="st3" cx="366.4" cy="239.2" r="114.4"/>
<path class="st4" d="M366.4,124c63.2,0,114.4,51.2,114.4,114.4s-51.2,115.2-114.4,115.2"/>
<path class="st5" d="M472,248h-25.6c0,15.2-4.8,30.4-11.2,39.2l-17.6-6.4c6.4-9.6,11.2-22.4,11.2-36.8c0-18.4-10.4-30.4-25.6-30.4
	c-14.4,0-23.2,10.4-30.4,28.8c-10.4,26.4-22.4,42.4-44.8,42.4c-21.6,0-37.6-15.2-41.6-39.2h-25.6v-16h24.8
	c0.8-15.2,4.8-26.4,8.8-33.6l16.8,6.4c-3.2,5.6-8.8,16-8.8,32.8c0,20,12,27.2,22.4,27.2c13.6,0,20-9.6,29.6-32
	c11.2-26.4,24-40,47.2-40c20,0,39.2,14.4,44,40.8H472V248L472,248z"/>
<path class="st6" d="M365.6,209.6v48c2.4-4.8,4.8-9.6,7.2-16c8-19.2,16.8-28.8,30.4-28.8c14.4,0,25.6,12,25.6,30.4
	c0,14.4-4.8,28-11.2,36.8l17.6,6.4c6.4-8.8,11.2-24.8,11.2-39.2H472v-16h-26.4c-4-26.4-23.2-40.8-44-40.8
	C385.6,191.2,374.4,197.6,365.6,209.6z"/>
<path class="st7" d="M292,424.8v-27.2h-44c-26.4-7.2-61.6-12-100.8-12s-76,4.8-101.6,12H0.8v27.2c0,0.8-0.8,1.6-0.8,3.2
	c0,23.2,65.6,41.6,145.6,41.6c80.8,0,145.6-18.4,145.6-41.6C292,426.4,292,425.6,292,424.8z"/>
<ellipse class="st8" cx="146.4" cy="401.6" rx="145.6" ry="41.6"/>
<path class="st9" d="M146.4,360c80.8,0,145.6,18.4,145.6,41.6s-65.6,41.6-145.6,41.6"/>
<ellipse class="st8" cx="146.4" cy="394.4" rx="92.8" ry="24.8"/>
<path class="st10" d="M146.4,419.2c-51.2,0-92.8-11.2-92.8-24.8s41.6-24.8,92.8-24.8"/>
<ellipse transform="matrix(0.9925 -0.1226 0.1226 0.9925 -46.5053 15.4611)" class="st4" cx="102.4" cy="385.6" rx="31.2" ry="6.4"/>
<g>
	<path class="st8" d="M10.4,416.8v26.4c2.4,1.6,4.8,3.2,8,4.8v-26.4C15.2,420,12.8,418.4,10.4,416.8z"/>
	<path class="st8" d="M43.2,431.2v26.4c2.4,0.8,4.8,1.6,8,2.4v-26.4C48.8,432.8,45.6,432,43.2,431.2z"/>
	<path class="st8" d="M76.8,438.4v26.4c2.4,0,4.8,0.8,8,0.8v-26.4C81.6,439.2,79.2,438.4,76.8,438.4z"/>
	<path class="st8" d="M109.6,441.6V468c2.4,0,4.8,0,8,0.8v-26.4C114.4,442.4,112,442.4,109.6,441.6z"/>
	<path class="st8" d="M146.4,443.2c-1.6,0-2.4,0-4,0v26.4c1.6,0,2.4,0,4,0s2.4,0,4,0v-26.4C148.8,443.2,148,443.2,146.4,443.2z"/>
	<path class="st8" d="M175.2,442.4v26.4c2.4,0,4.8,0,8-0.8v-26.4C180.8,442.4,178.4,442.4,175.2,442.4z"/>
	<path class="st8" d="M208.8,439.2v26.4c2.4,0,5.6-0.8,8-0.8v-26.4C213.6,438.4,211.2,439.2,208.8,439.2z"/>
	<path class="st8" d="M241.6,432.8v26.4c2.4-0.8,5.6-1.6,8-2.4v-26.4C246.4,432,244,432.8,241.6,432.8z"/>
	<path class="st8" d="M274.4,421.6V448c3.2-1.6,5.6-3.2,8-4.8v-26.4C280,418.4,277.6,420,274.4,421.6z"/>
</g>
<path class="st7" d="M292,342.4v-27.2h-44c-26.4-7.2-61.6-12-100.8-12S72,308,46.4,315.2H0.8v27.2c0,0.8-0.8,1.6-0.8,3.2
	c0,23.2,65.6,41.6,145.6,41.6c80.8,0,145.6-18.4,145.6-41.6C292,344.8,292,343.2,292,342.4z"/>
<ellipse class="st8" cx="146.4" cy="319.2" rx="145.6" ry="41.6"/>
<path class="st9" d="M146.4,277.6c80.8,0,145.6,18.4,145.6,41.6s-65.6,41.6-145.6,41.6"/>
<ellipse class="st8" cx="146.4" cy="312" rx="92.8" ry="24.8"/>
<path class="st10" d="M146.4,336.8c-51.2,0-92.8-11.2-92.8-24.8c0-13.6,41.6-24.8,92.8-24.8"/>
<ellipse transform="matrix(0.9925 -0.1226 0.1226 0.9925 -36.4079 14.8377)" class="st4" cx="102.4" cy="303.3" rx="31.2" ry="6.4"/>
<g>
	<path class="st8" d="M10.4,334.4v26.4c2.4,1.6,4.8,3.2,8,4.8v-26.4C15.2,337.6,12.8,336,10.4,334.4z"/>
	<path class="st8" d="M43.2,348.8v26.4c2.4,0.8,4.8,1.6,8,2.4v-26.4C48.8,350.4,45.6,349.6,43.2,348.8z"/>
	<path class="st8" d="M76.8,356v26.4c2.4,0,4.8,0.8,8,0.8v-26.4C81.6,356.8,79.2,356,76.8,356z"/>
	<path class="st8" d="M109.6,359.2v26.4c2.4,0,4.8,0,8,0.8V360C114.4,360,112,360,109.6,359.2z"/>
	<path class="st8" d="M146.4,360.8c-1.6,0-2.4,0-4,0v26.4c1.6,0,2.4,0,4,0s2.4,0,4,0v-26.4C148.8,360.8,148,360.8,146.4,360.8z"/>
	<path class="st8" d="M175.2,360v26.4c2.4,0,4.8,0,8-0.8v-26.4C180.8,360,178.4,360,175.2,360z"/>
	<path class="st8" d="M208.8,356.8v26.4c2.4,0,5.6-0.8,8-0.8V356C213.6,356,211.2,356.8,208.8,356.8z"/>
	<path class="st8" d="M241.6,351.2v26.4c2.4-0.8,5.6-1.6,8-2.4v-26.4C246.4,349.6,244,350.4,241.6,351.2z"/>
	<path class="st8" d="M274.4,339.2v26.4c3.2-1.6,5.6-3.2,8-4.8v-26.4C280,336,277.6,337.6,274.4,339.2z"/>
</g>
<path class="st7" d="M292,260v-27.2h-44c-26.4-7.2-61.6-12-100.8-12s-75.2,4.8-100.8,12H0.8V260c0,0.8-0.8,1.6-0.8,3.2
	c0,23.2,65.6,41.6,145.6,41.6c80.8,0,145.6-18.4,145.6-41.6C292,262.4,292,260.8,292,260z"/>
<ellipse class="st8" cx="146.4" cy="236.8" rx="145.6" ry="41.6"/>
<path class="st9" d="M146.4,195.2c80.8,0,145.6,18.4,145.6,41.6s-65.6,41.6-145.6,41.6"/>
<ellipse class="st8" cx="146.4" cy="229.6" rx="92.8" ry="24.8"/>
<path class="st10" d="M146.4,254.4c-51.2,0-92.8-11.2-92.8-24.8s41.6-24.8,92.8-24.8"/>
<ellipse transform="matrix(0.9925 -0.1226 0.1226 0.9925 -26.3982 14.2327)" class="st4" cx="102.5" cy="221.6" rx="31.2" ry="6.4"/>
<g>
	<path class="st8" d="M10.4,252v26.4c2.4,1.6,4.8,3.2,8,4.8v-26.4C15.2,255.2,12.8,253.6,10.4,252z"/>
	<path class="st8" d="M43.2,266.4v26.4c2.4,0.8,4.8,1.6,8,2.4v-26.4C48.8,268,45.6,267.2,43.2,266.4z"/>
	<path class="st8" d="M76.8,273.6V300c2.4,0,4.8,0.8,8,0.8v-26.4C81.6,274.4,79.2,273.6,76.8,273.6z"/>
	<path class="st8" d="M109.6,277.6V304c2.4,0,4.8,0,8,0.8v-26.4C114.4,277.6,112,277.6,109.6,277.6z"/>
	<path class="st8" d="M146.4,278.4c-1.6,0-2.4,0-4,0v26.4c1.6,0,2.4,0,4,0s2.4,0,4,0v-26.4C148.8,278.4,148,278.4,146.4,278.4z"/>
	<path class="st8" d="M175.2,277.6V304c2.4,0,4.8,0,8-0.8v-26.4C180.8,277.6,178.4,277.6,175.2,277.6z"/>
	<path class="st8" d="M208.8,274.4v26.4c2.4,0,5.6-0.8,8-0.8v-26.4C213.6,273.6,211.2,274.4,208.8,274.4z"/>
	<path class="st8" d="M241.6,268.8v25.6c2.4-0.8,5.6-1.6,8-2.4v-26.4C246.4,267.2,244,268,241.6,268.8z"/>
	<path class="st8" d="M274.4,256.8v26.4c3.2-1.6,5.6-3.2,8-4.8V252C280,253.6,277.6,255.2,274.4,256.8z"/>
</g>
</svg>
