<?xml version="1.0" encoding="utf-8"?>
<!-- Generator: Adobe Illustrator 21.1.0, SVG Export Plug-In . SVG Version: 6.00 Build 0)  -->
<svg version="1.1" id="Layer_1" xmlns="http://www.w3.org/2000/svg" xmlns:xlink="http://www.w3.org/1999/xlink" x="0px" y="0px"
	 viewBox="0 0 512 512" style="enable-background:new 0 0 512 512;" xml:space="preserve">
<style type="text/css">
	.st0{fill:#FFFFFF;}
</style>
<g>
	<g>
		<path class="st0" d="M231,0l-54.1,0c-5.9,0-10.7,4.8-10.7,10.7L225,213.6L118.2,218c-8.9,0-17.3,1.5-24.7,4l-40.9-69.5l-33.7,0
			c-4.5,0-8.1,3.6-8.1,8.1l29.4,90h0v10.8l-29.4,90c0,4.5,3.6,8.1,8.1,8.1l33.7,0l40.2-68.3c7.6,2.7,16.3,4.2,25.4,4.2l106.4,4.3
			l-58.4,201.5c0,5.9,4.8,10.7,10.7,10.7H231l112.3-208.3l104.5,3.5c29.5,0,53.4-22.6,53.4-50.5c0-27.9-23.9-50.5-53.4-50.5
			l-103.8,3.5L231,0z"/>
	</g>
</g>
</svg>
