<?xml version="1.0" encoding="utf-8"?>
<!-- Generator: Adobe Illustrator 22.0.1, SVG Export Plug-In . SVG Version: 6.00 Build 0)  -->
<svg version="1.1" id="Capa_1" xmlns="http://www.w3.org/2000/svg" xmlns:xlink="http://www.w3.org/1999/xlink" x="0px" y="0px"
	 viewBox="0 0 59 59" style="enable-background:new 0 0 59 59;" xml:space="preserve">
<style type="text/css">
	.st0{fill:#ECF0F1;}
	.st1{fill:#556080;}
	.st2{fill:#8697CB;}
	.st3{fill:#FFFFFF;}
	.st4{fill:#ED5564;}
	.st5{fill:#D0E8F9;}
	.st6{fill:#3D324C;}
	.st7{fill:#A4E869;}
	.st8{fill:#7F6E5D;}
</style>
<rect x="0.5" y="48" class="st0" width="58" height="11"/>
<rect x="16.5" class="st1" width="26" height="48"/>
<polygon class="st2" points="0.5,3 0.5,19 0.5,37 0.5,48 16.5,48 16.5,37 16.5,19 16.5,3 "/>
<polygon class="st2" points="42.5,3 42.5,19 42.5,37 42.5,48 58.5,48 58.5,37 58.5,19 58.5,3 "/>
<rect x="20.5" y="5" class="st3" width="7" height="5"/>
<rect x="31.5" y="5" class="st3" width="7" height="5"/>
<rect x="46.5" y="9" class="st3" width="8" height="5"/>
<rect x="46.5" y="18" class="st3" width="8" height="5"/>
<rect x="4.5" y="9" class="st3" width="8" height="5"/>
<rect x="4.5" y="18" class="st3" width="8" height="5"/>
<rect x="20.5" y="14" class="st3" width="7" height="5"/>
<rect x="31.5" y="14" class="st3" width="7" height="5"/>
<rect x="20.5" y="23" class="st3" width="7" height="5"/>
<rect x="31.5" y="23" class="st3" width="7" height="5"/>
<polygon class="st4" points="38.5,59 20.5,59 22.5,48 36.5,48 "/>
<rect x="21.5" y="34" class="st5" width="16" height="14"/>
<path class="st6" d="M37.5,33h-16c-0.6,0-1,0.4-1,1v14h18V34C38.5,33.4,38.1,33,37.5,33z"/>
<rect x="22.5" y="35" class="st5" width="14" height="13"/>
<rect x="28.5" y="35" class="st6" width="2" height="13"/>
<circle class="st7" cx="8.5" cy="37" r="8"/>
<circle class="st7" cx="50.5" cy="37" r="8"/>
<g>
	<path class="st8" d="M10.8,37.3l-2.3,2.3l-2.3-2.3c-0.4-0.4-1-0.4-1.4,0s-0.4,1,0,1.4l2.7,2.7V58c0,0.6,0.4,1,1,1s1-0.4,1-1V41.4
		l2.7-2.7c0.4-0.4,0.4-1,0-1.4S11.2,36.9,10.8,37.3z"/>
	<path class="st8" d="M54.2,37.3c-0.4-0.4-1-0.4-1.4,0l-2.3,2.3l-2.3-2.3c-0.4-0.4-1-0.4-1.4,0s-0.4,1,0,1.4l2.7,2.7V58
		c0,0.6,0.4,1,1,1s1-0.4,1-1V41.4l2.7-2.7C54.6,38.3,54.6,37.7,54.2,37.3z"/>
</g>
</svg>
