<?xml version="1.0" encoding="iso-8859-1"?>
<!-- Generator: Adobe Illustrator 19.0.0, SVG Export Plug-In . SVG Version: 6.00 Build 0)  -->
<svg version="1.1" id="Capa_1" xmlns="http://www.w3.org/2000/svg" xmlns:xlink="http://www.w3.org/1999/xlink" x="0px" y="0px"
	 viewBox="0 0 464 464" style="enable-background:new 0 0 464 464;" xml:space="preserve">
<path style="fill:#576177;" d="M464,280H0V16C0,7.2,7.2,0,16,0h432c8.8,0,16,7.2,16,16V280z"/>
<g>
	<path style="fill:#E6E6E6;" d="M464,280H0v48c0,8.8,7.2,16,16,16h432c8.8,0,16-7.2,16-16V280z"/>
	<path style="fill:#E6E6E6;" d="M356.4,440.8L356.4,440.8c-2.7-5.4-8.3-8.8-14.3-8.8H304l-16-88H176l-16,88h-38.1
		c-6.1,0-11.6,3.4-14.3,8.8l0,0c-5.3,10.6,2.4,23.2,14.3,23.2h220.2C354,464,361.7,451.5,356.4,440.8z"/>
</g>
<rect x="208" y="304" style="fill:#FFFFFF;" width="48" height="16"/>
<polygon style="fill:#D6D6D6;" points="288,344 176,344 173.1,360 290.9,360 "/>
<g>
	<polygon style="fill:#FFFFFF;" points="237.7,18.3 226.3,29.7 236.7,40 208,40 208,56 236.7,56 226.3,66.3 237.7,77.7 267.3,48 	
		"/>
	<polygon style="fill:#FFFFFF;" points="264,216 235.3,216 245.7,205.7 234.3,194.3 204.7,224 234.3,253.7 245.7,242.3 235.3,232 
		264,232 	"/>
</g>
<path style="fill:#E65039;" d="M416,216H304c-8.8,0-16-7.2-16-16V72c0-8.8,7.2-16,16-16h112c8.8,0,16,7.2,16,16v128
	C432,208.8,424.8,216,416,216z"/>
<g>
	<path style="fill:#AD3C2B;" d="M328,152h-16V96h8c4.4,0,8-3.6,8-8v-8h40v16h-25.4c-2.4,6.8-7.8,12.2-14.6,14.6V152z"/>
	<path style="fill:#AD3C2B;" d="M408,152h-16v-41.4c-6.8-2.4-12.2-7.8-14.6-14.6H368V80h24v8c0,4.4,3.6,8,8,8h8V152z"/>
	<path style="fill:#AD3C2B;" d="M392,216h-64v-8c0-17.7,14.3-32,32-32l0,0c17.7,0,32,14.3,32,32V216z"/>
	<rect x="352" y="120" style="fill:#AD3C2B;" width="16" height="32"/>
</g>
<path style="fill:#FCB641;" d="M112,216L112,216c-44,0-80-36-80-80l0,0c0-44,36-80,80-80l0,0c44,0,80,36,80,80l0,0
	C192,180,156,216,112,216z"/>
<path style="fill:#FDD38D;" d="M112,192L112,192c-30.8,0-56-25.2-56-56l0,0c0-30.8,25.2-56,56-56l0,0c30.8,0,56,25.2,56,56l0,0
	C168,166.8,142.8,192,112,192z"/>
<path style="fill:#FCB641;" d="M112,184L112,184c-26.4,0-48-21.6-48-48l0,0c0-26.4,21.6-48,48-48l0,0c26.4,0,48,21.6,48,48l0,0
	C160,162.4,138.4,184,112,184z"/>
<rect x="128" y="112" style="fill:#FDD38D;" width="8" height="8"/>
<g>
</g>
<g>
</g>
<g>
</g>
<g>
</g>
<g>
</g>
<g>
</g>
<g>
</g>
<g>
</g>
<g>
</g>
<g>
</g>
<g>
</g>
<g>
</g>
<g>
</g>
<g>
</g>
<g>
</g>
</svg>
