<?xml version="1.0" encoding="utf-8"?>
<!-- Generator: Adobe Illustrator 22.0.1, SVG Export Plug-In . SVG Version: 6.00 Build 0)  -->
<svg version="1.1" id="Layer_1" xmlns="http://www.w3.org/2000/svg" xmlns:xlink="http://www.w3.org/1999/xlink" x="0px" y="0px"
	 viewBox="0 0 432.9 432.9" style="enable-background:new 0 0 432.9 432.9;" xml:space="preserve">
<style type="text/css">
	.st0{fill:#03546D;}
	.st1{fill:#FFCE54;}
	.st2{fill:#71C285;}
	.st3{fill:#E6E6E6;}
	.st4{fill:#666666;}
	.st5{fill:#CCCCCC;}
	.st6{fill:#83CC92;}
</style>
<g>
	<path class="st0" d="M200.2,87.1l37.7-7.4c6.5-1.3,12.6,3.7,12.6,10.3v22.6c-3-0.3-6-0.5-9.1-0.5h-49.8V97.4
		C191.7,92.4,195.3,88,200.2,87.1z"/>
	<path class="st1" d="M400.3,203.8l-73.5-5.4l-10.9-32.7c-9.7-29.1-35.4-49.7-65.4-53.1c-3-0.3-6-0.5-9.1-0.5H122.7
		c-31.7,0-59.4,21.1-67.8,51.7l-5.5,20c-1.3,4.6-3.6,8.8-6.7,12.3c-3.1,3.5-7,6.3-11.4,8.1c-11.6,4.8-19.2,16.1-19.2,28.7v56.5h22.9
		c0.8-1.9,1.7-3.7,2.8-5.5c9.6-16.6,27.4-26.9,46.6-26.9s37,10.3,46.6,26.9c1,1.8,1.9,3.6,2.8,5.5h163.1c0.8-1.9,1.7-3.7,2.7-5.4
		c9.5-16.6,27.4-27,46.6-27c19.2,0,37,10.3,46.6,26.9c1,1.8,2,3.6,2.8,5.5h25.5l8.6-48C432.8,222.7,419.2,205.3,400.3,203.8z
		 M241.3,240.4h-18.2v18.2h-18.2v-18.2h-18.2v18.2h-18.2v-18.2h-18.2v-18.2h18.2v18.2h18.2v-18.2h18.2v18.2h18.2v-18.2h18.2V240.4z"
		/>
	<path class="st2" d="M99.9,141.1v57.3H69.3L76,174l1.1-4.1C80.6,157.3,89,147.1,99.9,141.1z"/>
	<path class="st2" d="M207.5,135.2v63.2h-94.6v-62.2c1.4-0.3,2.9-0.6,4.4-0.7c1.8-0.2,3.5-0.3,5.3-0.3H207.5z"/>
	<path class="st2" d="M302.5,198.4h-82v-63.2h21c23.9,0,45,15.2,52.5,37.9L302.5,198.4z"/>
	<path class="st3" d="M346,293.2c9.7,0,17.5,7.9,17.5,17.5s-7.9,17.5-17.5,17.5s-17.5-7.9-17.5-17.5S336.3,293.2,346,293.2z"/>
	<path class="st3" d="M84.2,293.2c9.7,0,17.5,7.9,17.5,17.5s-7.9,17.5-17.5,17.5s-17.5-7.9-17.5-17.5S74.6,293.2,84.2,293.2z"/>
	<path class="st4" d="M388.8,310.7c0,0.9,0,1.9-0.1,2.8c-1.4,22.3-20,40-42.7,40s-41.2-17.7-42.7-40c-0.1-0.9-0.1-1.9-0.1-2.8
		c0-7.7,2.1-15,5.7-21.3c7.4-12.8,21.2-21.5,37.1-21.5c15.8,0,29.7,8.6,37.1,21.4C386.7,295.7,388.8,303,388.8,310.7z M363.5,310.7
		c0-9.7-7.9-17.5-17.5-17.5s-17.5,7.9-17.5,17.5s7.9,17.5,17.5,17.5S363.5,320.4,363.5,310.7z"/>
	<path class="st4" d="M121.3,289.4c3.6,6.3,5.7,13.6,5.7,21.3c0,0.9,0,1.9-0.1,2.8c-1.4,22.3-20,40-42.7,40
		c-22.7,0-41.2-17.7-42.7-40c-0.1-0.9-0.1-1.9-0.1-2.8c0-7.8,2.1-15.1,5.7-21.3c7.4-12.8,21.2-21.4,37-21.4S113.9,276.6,121.3,289.4
		z M101.8,310.7c0-9.7-7.9-17.5-17.5-17.5s-17.5,7.9-17.5,17.5s7.9,17.5,17.5,17.5S101.8,320.4,101.8,310.7z"/>
	<path class="st5" d="M432.9,301.5L432.9,301.5c0,6.7-5.4,12.1-12.1,12.1h-21.2c0-0.9,0.1-1.9,0.1-2.8c0-7.4-1.5-14.6-4.4-21.3h25.5
		C427.5,289.4,432.9,294.8,432.9,301.5z"/>
	<path class="st5" d="M292.3,310.7c0,0.9,0,1.9,0.1,2.8H137.9c0.1-0.9,0.1-1.9,0.1-2.8c0-7.4-1.5-14.6-4.4-21.3h163.1
		C293.8,296.1,292.3,303.4,292.3,310.7z"/>
	<path class="st5" d="M30.5,310.7c0,0.9,0,1.9,0.1,2.8H12.1c-6.7,0-12.1-5.4-12.1-12.1l0,0c0-6.7,5.4-12.1,12.1-12.1h22.9
		C32,296.1,30.5,303.4,30.5,310.7z"/>
	<rect x="223.1" y="222.2" class="st4" width="18.2" height="18.2"/>
	<rect x="204.9" y="240.4" class="st4" width="18.2" height="18.2"/>
	<rect x="186.6" y="222.2" class="st4" width="18.2" height="18.2"/>
	<rect x="168.4" y="240.4" class="st4" width="18.2" height="18.2"/>
	<rect x="150.2" y="222.2" class="st4" width="18.2" height="18.2"/>
	<path class="st0" d="M415.3,266.5L415.3,266.5c-9.4,0-17-7.6-17-17l0,0c0-9.4,7.6-17,17-17l0,0V266.5z"/>
	<path class="st6" d="M207.5,135.2v63.2h-32.4l-62.2-62.2l4.4-0.7c1.8-0.2,3.5-0.3,5.3-0.3H207.5z"/>
	<path class="st6" d="M302.5,198.4h-19.8l-62.2-62.2l4.4-0.7c1.8-0.2,3.5-0.3,5.3-0.3h11.2c23.9,0,45,15.2,52.5,37.9L302.5,198.4z"
		/>
	<path class="st6" d="M99.9,141.1v56.8L76,174l1.1-4.1C80.6,157.3,89,147.1,99.9,141.1z"/>
</g>
</svg>
