<svg xmlns="http://www.w3.org/2000/svg" viewBox="0 0 512 421.18"><defs><style>.cls-1{fill:#00bafb;}.cls-2{fill:#fff;}</style></defs><title>Asset 8</title><g id="Layer_2" data-name="Layer 2"><g id="Layer_1-2" data-name="Layer 1"><path class="cls-1" d="M382.14,421.18H34.79a13.79,13.79,0,0,1,0-27.58H382.14a13.79,13.79,0,1,1,0,27.58Z"/><path class="cls-1" d="M477.21,421.18H446.53a13.79,13.79,0,1,1,0-27.58h30.68a13.79,13.79,0,1,1,0,27.58Z"/><path class="cls-1" d="M451.91,223.1H421.29a13.79,13.79,0,0,1,0-27.58h30.62a32.51,32.51,0,0,0,0-65H37.54l-8.13,65H247.49a13.79,13.79,0,0,1,0,27.58H13.79A13.79,13.79,0,0,1,.11,207.6L11.68,115a13.79,13.79,0,0,1,13.69-12.08H451.91a60.09,60.09,0,0,1,0,120.18Z"/><polygon class="cls-2" points="74.08 75.91 25.39 75.91 13.79 209.31 108.53 209.31 74.08 75.91"/><path class="cls-1" d="M108.53,223.1H13.79a13.8,13.8,0,0,1-13.74-15L11.65,74.72a13.8,13.8,0,0,1,13.74-12.6H74.08A13.79,13.79,0,0,1,87.43,72.47l34.45,133.39a13.78,13.78,0,0,1-13.35,17.24Zm-79.7-27.58h61.9L63.4,89.71H38Z"/><polygon class="cls-2" points="362.5 116.71 228.49 13.79 167.03 13.79 252.31 116.71 362.5 116.71"/><path class="cls-1" d="M362.5,130.5H252.31a13.79,13.79,0,0,1-10.62-5L156.41,22.59A13.79,13.79,0,0,1,167,0h61.46a13.79,13.79,0,0,1,8.4,2.85l134,102.92a13.79,13.79,0,0,1-8.4,24.73ZM258.79,102.92h63.12l-98.1-75.34H196.36Z"/><polygon class="cls-2" points="190.96 315.74 129.5 315.74 243.93 177.63 370.79 177.63 190.96 315.74"/><path class="cls-1" d="M191,329.53H129.5a13.79,13.79,0,0,1-10.62-22.59L233.31,168.83a13.79,13.79,0,0,1,10.62-5H370.79a13.8,13.8,0,0,1,8.4,24.73L199.36,326.67A13.8,13.8,0,0,1,191,329.53ZM158.84,302h27.44L330.19,191.42H250.41Z"/></g></g></svg>